<svg xmlns="http://www.w3.org/2000/svg" viewBox="0 0 1960 2147"><path fill="#304A14" fill-rule="evenodd" d="M632.8,1088.4C630.9,1086.4 629.7,1085.9 628.3,1086.6C627.3,1087.0 626.0,1087.5 625.5,1087.5C625.0,1087.6 623.6,1088.1 622.5,1088.6C618.7,1090.3 602.7,1089.7 598.4,1087.6C596.3,1086.6 593.3,1085.2 591.8,1084.5C589.4,1083.3 588.9,1083.4 586.9,1085.6C585.7,1086.9 584.4,1088.0 584.0,1088.0C583.1,1088.0 575.0,1080.3 575.0,1079.5C575.0,1079.2 576.4,1077.6 578.2,1076.0L581.4,1073.0L579.2,1070.1C578.0,1068.4 577.0,1066.7 577.0,1066.2C577.0,1063.4 574.5,1063.1 571.9,1065.6C569.0,1068.4 567.7,1067.8 569.1,1064.2C569.6,1063.0 570.8,1062.0 571.8,1062.0C575.9,1062.0 576.2,1059.5 573.4,1049.2C573.2,1048.4 572.1,1047.6 571.1,1047.3C569.9,1047.0 569.0,1045.6 568.5,1043.4C567.6,1038.4 568.8,1037.4 571.9,1040.4C574.8,1043.1 577.0,1042.5 577.0,1038.9C577.0,1038.0 577.7,1036.7 578.5,1036.0C580.6,1034.3 580.4,1033.3 577.5,1029.8C574.2,1025.9 575.4,1024.0 578.9,1027.4L581.6,1030.0L591.6,1019.7C607.5,1003.4 608.4,1002.2 607.3,1000.8C606.7,1000.1 606.0,997.7 605.6,995.5C605.0,991.7 605.2,991.4 609.5,988.2C614.6,984.5 614.7,984.5 617.3,986.8C619.2,988.4 619.4,988.3 625.6,981.6C629.8,977.1 631.7,974.4 631.1,973.6C630.7,973.0 630.0,970.8 629.6,968.8C629.0,965.4 629.3,964.8 632.7,961.6C637.1,957.5 637.7,957.3 640.5,960.0L642.6,962.0L647.5,957.0C651.7,952.8 652.3,951.7 651.4,950.2C647.7,944.3 649.0,939.7 655.1,936.6C657.5,935.4 658.1,935.4 659.1,936.6C660.6,938.4 661.9,938.4 664.2,936.3C665.8,934.9 665.8,934.5 664.6,933.1C663.8,932.2 662.9,929.9 662.5,928.0C661.9,924.6 662.1,924.3 666.5,921.1C670.8,918.0 671.2,917.9 672.9,919.4C675.3,921.5 676.3,921.4 678.9,918.7C680.7,916.7 680.8,916.1 679.7,915.2C678.9,914.5 678.1,914.3 677.8,914.6C677.5,914.9 676.9,913.4 676.5,911.4C675.9,908.2 676.2,907.4 678.2,905.8C681.2,903.5 682.3,903.6 684.5,906.0L686.3,908.0L688.8,905.8C692.0,902.7 693.3,900.2 692.3,898.7C691.9,898.1 691.0,896.0 690.4,894.2C689.3,891.2 689.4,890.8 692.0,889.0C694.8,887.0 694.8,887.0 697.3,889.0C699.5,890.7 699.9,890.8 701.0,889.5C701.7,888.7 701.9,887.2 701.5,886.3C699.8,882.1 700.2,877.5 702.4,875.8C704.4,874.2 704.6,874.2 706.7,876.2C708.6,877.9 709.2,878.1 710.5,877.0C712.0,875.7 712.5,872.8 711.4,871.7C711.0,871.3 710.6,869.2 710.4,867.0C709.9,862.4 712.3,861.4 715.5,865.0C717.7,867.4 719.0,866.6 722.7,860.7L725.1,856.9L722.4,853.7C720.1,850.9 719.9,850.5 721.4,850.2C722.4,850.0 723.9,850.5 724.9,851.4C726.5,852.9 726.8,852.9 728.5,851.0C729.8,849.6 730.0,848.7 729.2,847.8C728.7,847.1 727.9,844.8 727.5,842.8C726.9,839.5 727.0,839.0 728.7,839.0C729.8,839.0 731.5,839.9 732.5,841.0L734.3,843.0L736.7,840.9C738.4,839.2 738.7,838.4 737.9,837.3C737.0,836.3 736.4,836.3 735.4,837.1C734.3,838.0 734.0,837.6 733.9,835.1C733.8,833.4 733.7,831.6 733.6,831.1C733.5,830.6 735.1,829.1 737.0,827.8C739.9,825.8 740.5,824.8 740.5,822.0C740.5,819.2 740.9,818.4 742.7,818.2C745.7,817.8 747.5,815.3 747.5,811.6C747.5,809.0 747.9,808.5 750.1,808.2C754.1,807.7 756.5,804.7 754.9,802.2C753.8,800.4 753.9,799.8 755.2,798.3C756.1,797.3 757.0,795.4 757.2,794.0C757.4,792.3 758.2,791.4 759.7,791.2C762.7,790.8 764.5,788.3 764.2,785.0C764.1,783.5 764.7,781.7 765.5,781.0C766.3,780.3 767.0,778.7 767.0,777.4C767.0,774.5 770.4,774.1 773.2,776.7C775.0,778.3 775.2,778.2 777.7,775.7L780.4,773.0L777.5,770.0C774.8,767.2 774.8,766.9 776.3,765.2C777.2,764.2 777.7,762.5 777.4,761.4C777.1,760.2 777.6,758.7 778.9,757.6C780.1,756.5 781.0,754.7 781.0,753.6C781.0,752.4 781.9,750.9 782.9,750.3C784.1,749.6 784.6,748.4 784.4,747.3C783.7,744.8 790.3,742.2 792.5,744.0C793.7,745.0 794.3,745.0 795.5,744.0C796.9,742.8 796.7,742.3 793.9,739.8L790.8,736.9L793.0,734.5C794.2,733.2 795.0,731.4 794.7,730.6C794.4,729.8 795.0,728.4 796.1,727.4C797.2,726.4 797.9,724.8 797.7,723.8C797.4,722.9 798.1,721.3 799.1,720.4C800.1,719.5 801.0,717.7 801.0,716.5C801.0,715.2 801.6,713.7 802.4,713.0C803.2,712.4 804.0,710.9 804.2,709.7C804.4,708.2 805.3,707.4 807.0,707.2C810.6,706.7 813.2,704.0 812.6,701.4C812.2,700.1 812.6,698.7 813.5,698.0C814.7,697.0 814.9,695.6 814.4,692.3C813.8,688.4 814.0,687.7 815.9,686.3C817.1,685.5 817.9,684.2 817.6,683.5C817.3,682.7 818.0,681.0 819.1,679.7C820.1,678.3 821.0,676.5 821.0,675.7C821.0,674.9 821.7,673.7 822.5,673.0C823.3,672.3 824.0,671.0 824.0,670.0C824.0,669.1 824.9,667.5 826.0,666.5C827.1,665.5 828.0,663.9 828.0,663.0C828.0,662.1 828.9,660.5 830.0,659.5C831.2,658.5 831.9,657.1 831.6,656.4C831.0,654.9 832.9,653.0 834.9,653.0C835.8,653.0 837.8,651.9 839.4,650.6L842.4,648.3L840.2,645.5C837.5,642.0 837.4,637.9 840.0,635.5C841.1,634.5 842.0,632.9 842.0,632.0C842.0,631.0 842.7,629.7 843.6,628.9C844.5,628.1 845.0,626.4 844.8,624.4C844.6,622.1 845.2,620.4 846.8,618.7C848.0,617.4 848.7,616.0 848.3,615.7C848.0,615.3 848.7,613.9 849.9,612.6C851.7,610.7 852.1,609.5 851.5,607.0C850.9,604.4 851.2,603.6 853.4,601.9C854.9,600.8 855.7,599.4 855.4,598.8C855.1,598.3 855.8,596.8 857.0,595.5C858.7,593.7 859.1,592.4 858.6,590.4C858.1,588.4 858.4,587.2 860.1,585.4C861.6,583.8 862.1,582.2 861.8,580.1C861.5,577.9 861.9,576.5 863.2,575.3C864.3,574.3 865.0,572.3 865.0,570.0C865.0,567.6 865.7,565.7 867.0,564.5C868.5,563.1 868.9,561.9 868.4,559.6C868.0,557.2 868.4,556.0 869.9,554.6C871.2,553.5 872.0,551.5 872.0,549.7C872.0,548.0 872.8,545.8 873.7,544.8C874.8,543.5 875.3,541.6 875.1,539.3C874.9,536.6 875.3,535.5 877.0,534.3C878.8,533.1 879.1,532.1 878.6,529.5C878.1,526.8 878.4,526.0 880.6,524.5C882.8,523.1 883.1,522.3 882.6,519.6C882.1,517.1 882.4,515.9 883.9,514.6C885.5,513.1 885.7,511.9 885.3,507.7C884.9,503.3 885.1,502.2 886.9,500.6C888.2,499.4 889.0,497.5 889.0,495.5C889.0,493.7 889.7,491.6 890.6,490.9C891.9,489.9 892.1,488.4 891.7,484.3C891.2,479.5 891.4,478.7 893.7,476.6C895.6,474.8 896.1,473.6 895.6,471.7C895.2,470.0 895.6,468.8 897.0,467.5C898.5,466.1 899.0,464.4 899.0,460.5C899.0,456.5 899.5,454.9 901.1,453.4C902.9,451.8 903.1,450.7 902.7,446.9C902.2,443.1 902.5,441.9 904.1,440.4C905.5,439.1 906.0,437.4 906.0,433.3C906.0,429.1 906.4,427.8 907.8,427.3C911.0,426.1 912.1,424.8 910.9,423.4C910.4,422.7 909.6,419.7 909.3,416.8C908.9,412.3 909.1,411.2 910.9,409.6C912.5,408.1 913.0,406.5 913.0,402.6C913.0,398.3 913.3,397.3 915.2,396.5C916.5,395.9 917.3,394.8 917.1,394.0C917.0,393.2 916.6,389.9 916.3,386.7C915.8,381.6 916.0,380.7 917.8,379.4C919.8,378.0 919.9,377.3 919.3,370.5L918.7,363.0L921.3,363.0C922.7,363.0 924.2,363.5 924.5,364.0C925.4,365.5 928.0,363.2 928.0,361.0C928.0,360.0 926.9,358.3 925.5,357.3C923.4,355.8 922.8,354.3 922.3,349.6C921.7,344.2 921.9,343.7 924.4,341.6C927.1,339.5 927.2,339.4 926.1,333.5C924.7,326.1 926.2,323.6 930.3,326.3C935.4,329.6 936.9,323.1 932.0,318.8C928.0,315.3 927.6,307.2 931.3,304.7C933.5,303.3 933.6,302.7 933.2,294.7C932.7,285.3 933.4,284.0 937.3,287.0C939.4,288.7 940.0,288.8 941.0,287.6C942.9,285.3 941.8,279.6 939.3,278.5C936.8,277.4 936.0,275.3 936.0,269.2C936.0,264.7 938.4,263.3 941.0,266.5C942.9,268.8 945.0,266.5 945.0,261.9C945.0,259.2 944.4,257.7 942.9,256.7C940.9,255.2 939.1,249.9 939.0,245.2C939.0,242.0 941.7,241.3 944.4,243.9C947.6,247.0 949.2,244.8 948.8,237.8C948.6,233.4 948.1,232.3 946.2,231.5C943.8,230.4 943.5,229.7 942.5,223.4C941.7,217.9 943.6,216.1 947.2,219.0C949.4,220.7 950.0,220.8 951.0,219.6C952.9,217.2 951.8,210.7 949.3,209.5C947.0,208.5 946.0,205.3 946.0,198.8C946.0,194.3 948.1,192.9 950.9,195.4C953.5,197.8 955.0,195.6 955.0,189.4C955.0,184.7 953.3,181.1 951.7,182.6C950.9,183.5 949.0,176.1 949.0,171.7C949.0,167.0 951.2,165.9 954.4,168.9C958.1,172.4 959.1,169.9 958.8,158.9C958.5,150.4 958.3,149.4 956.3,148.5C954.0,147.5 953.0,144.3 953.0,137.9C953.0,133.1 954.1,132.4 957.0,135.5C960.5,139.3 962.0,137.3 962.1,128.6C962.1,124.7 962.5,120.6 962.9,119.5C963.9,117.1 962.5,115.0 960.0,115.0C957.4,115.0 956.2,113.0 955.9,108.1C955.4,102.3 957.7,100.5 961.3,103.8C963.1,105.5 963.9,105.7 964.8,104.8C966.8,102.8 966.2,100.6 962.8,97.6C960.6,95.7 959.9,94.5 960.8,94.2C961.5,94.0 963.0,94.6 964.0,95.5C966.5,97.7 967.4,97.0 970.6,90.3C972.3,86.6 975.8,82.1 980.6,77.5L987.9,70.3L985.5,68.0C982.7,65.4 982.3,63.2 984.4,62.4C986.3,61.7 990.0,63.7 990.0,65.4C990.0,68.6 992.9,69.4 996.0,67.2C998.0,65.6 1000.4,65.0 1003.8,65.0C1010.0,65.0 1011.8,63.4 1008.9,60.4C1005.7,57.0 1007.0,55.0 1012.4,55.0C1020.1,55.0 1022.0,56.9 1018.0,60.5C1015.3,63.0 1017.1,65.0 1021.9,65.0C1024.6,65.0 1026.3,64.3 1028.0,62.5C1029.3,61.1 1030.9,60.0 1031.7,60.0C1033.5,60.0 1033.4,62.5 1031.5,64.0C1029.7,65.5 1031.2,68.0 1033.9,68.0C1034.8,68.0 1036.1,68.9 1036.8,70.1C1038.1,72.2 1038.2,72.2 1041.2,69.1C1042.9,67.4 1044.9,66.0 1045.6,66.0C1047.7,66.0 1047.3,69.4 1045.0,71.5C1042.3,73.9 1042.4,74.5 1046.5,77.6C1049.8,80.1 1050.2,80.2 1051.9,78.6C1054.1,76.6 1055.4,76.6 1058.6,78.6C1060.1,79.7 1060.9,80.9 1060.5,81.8C1060.2,82.6 1060.9,84.3 1062.0,85.5C1064.6,88.2 1063.9,92.1 1060.7,93.5C1058.1,94.7 1057.3,98.2 1059.3,99.8C1060.4,100.7 1061.1,100.6 1062.5,99.0C1063.5,97.9 1064.9,97.0 1065.7,97.0C1068.0,97.0 1067.2,101.9 1064.5,104.2C1062.2,106.2 1062.0,107.0 1062.0,115.0C1062.0,124.8 1063.0,126.7 1066.6,124.3C1070.7,121.7 1071.3,123.3 1070.7,134.8C1070.3,143.3 1069.8,145.8 1068.1,148.1C1065.5,151.6 1064.9,169.9 1067.4,171.9C1068.4,172.7 1069.0,172.8 1069.5,172.0C1069.8,171.5 1071.1,171.0 1072.2,171.0C1074.3,171.0 1074.3,171.2 1073.6,189.4L1072.9,207.9L1075.4,209.5C1077.7,211.0 1078.0,211.9 1078.0,216.7C1078.0,224.7 1076.0,236.3 1074.3,238.2C1072.6,240.1 1073.9,241.4 1078.0,241.4L1080.5,241.5L1080.4,251.8C1080.3,261.1 1080.1,262.3 1078.1,263.6C1076.6,264.7 1076.0,266.2 1076.0,268.9C1076.0,273.7 1078.0,275.6 1081.0,274.0C1082.2,273.4 1083.4,273.0 1083.6,273.3C1084.4,274.0 1084.2,284.2 1083.5,288.4C1082.8,291.9 1083.0,292.6 1085.4,294.5L1088.1,296.6L1087.2,306.9C1086.4,317.1 1086.4,317.2 1088.8,318.8C1091.1,320.3 1091.2,320.7 1090.5,328.5C1089.9,335.9 1090.0,336.7 1092.0,338.5C1093.9,340.2 1094.1,341.3 1093.8,347.5C1093.5,354.1 1093.6,354.6 1095.9,355.5C1098.1,356.5 1098.2,356.8 1097.6,364.0C1097.3,368.1 1096.9,372.4 1096.8,373.5C1096.6,374.8 1097.3,375.8 1098.8,376.5C1101.1,377.4 1101.2,377.8 1100.5,384.2C1099.9,390.7 1100.0,390.9 1102.6,392.6C1105.1,394.3 1105.2,394.6 1104.6,401.0C1104.0,406.9 1104.1,407.8 1106.0,409.5C1107.5,410.8 1108.0,412.5 1108.0,416.0C1108.0,419.5 1108.5,421.2 1110.1,422.6C1112.0,424.3 1112.2,425.2 1111.7,431.4C1111.3,435.4 1110.5,438.9 1109.6,439.9C1107.8,441.9 1109.1,444.0 1112.1,444.0C1113.4,444.0 1114.0,445.1 1114.5,448.5C1114.9,450.9 1115.8,453.5 1116.6,454.1C1117.4,454.7 1118.0,456.8 1118.0,458.6C1118.0,460.9 1118.6,462.4 1120.0,463.2C1121.6,464.2 1122.0,465.6 1122.0,469.6C1122.0,473.5 1122.5,475.1 1124.1,476.6C1125.9,478.2 1126.2,479.3 1125.7,484.2C1125.3,488.5 1125.6,490.2 1126.7,491.2C1127.8,492.1 1128.1,493.8 1127.8,497.8C1127.4,502.2 1127.6,503.4 1129.2,504.3C1130.4,505.1 1131.0,506.7 1131.0,509.1C1131.0,511.4 1131.7,513.3 1133.0,514.5C1134.1,515.5 1135.0,517.5 1135.0,519.0C1135.0,520.5 1135.9,522.5 1137.0,523.5C1138.3,524.7 1139.0,526.6 1139.0,529.0C1139.0,531.4 1139.7,533.3 1140.9,534.4C1142.5,535.9 1142.7,537.1 1142.3,541.4C1141.9,545.4 1142.1,546.9 1143.4,547.9C1144.3,548.6 1145.0,549.8 1145.0,550.4C1145.0,551.1 1146.1,552.7 1147.5,554.0C1149.7,556.1 1149.9,556.9 1149.4,561.4C1148.9,565.5 1149.1,566.9 1150.4,567.9C1151.3,568.6 1152.0,570.1 1152.0,571.1C1152.0,572.1 1152.9,573.5 1154.0,574.2C1155.5,575.2 1156.0,576.6 1156.0,579.6C1156.0,582.1 1156.6,584.3 1157.5,585.0C1158.3,585.7 1159.0,587.9 1159.0,590.0C1159.0,592.1 1159.7,594.3 1160.5,595.0C1161.3,595.7 1162.0,597.9 1162.0,600.0C1162.0,602.1 1162.7,604.3 1163.5,605.0C1164.3,605.7 1165.0,607.0 1165.0,608.0C1165.0,608.9 1165.9,610.5 1167.0,611.5C1168.3,612.7 1169.0,614.6 1169.0,617.0C1169.0,619.1 1169.7,621.3 1170.5,622.0C1171.4,622.7 1172.0,624.9 1172.0,627.5C1172.0,630.1 1172.6,632.3 1173.5,633.0C1174.3,633.7 1175.0,635.1 1175.0,636.1C1175.0,637.1 1175.9,638.5 1177.0,639.2C1178.1,639.9 1179.0,641.2 1179.0,642.1C1179.0,643.0 1179.9,644.5 1181.0,645.5C1182.7,647.0 1183.0,648.1 1182.4,651.5C1182.0,654.6 1182.2,655.9 1183.4,656.9C1184.3,657.7 1185.0,658.8 1185.0,659.5C1185.0,660.1 1185.9,661.5 1187.0,662.5C1189.6,664.8 1189.6,669.0 1187.0,672.3L1185.0,674.9L1188.2,677.2C1190.0,678.5 1192.4,680.0 1193.5,680.6C1194.6,681.2 1195.5,682.4 1195.5,683.3C1195.5,684.1 1196.3,685.7 1197.3,686.7C1198.2,687.8 1199.0,689.3 1199.0,690.2C1199.0,691.0 1199.9,692.5 1201.0,693.5C1202.1,694.5 1203.0,696.1 1203.0,697.0C1203.0,698.0 1203.7,699.3 1204.5,700.0C1205.3,700.7 1206.0,702.0 1206.0,703.0C1206.0,703.9 1206.9,705.5 1208.0,706.5C1209.1,707.5 1210.0,709.3 1210.0,710.5C1210.0,711.8 1210.7,713.3 1211.5,714.0C1212.3,714.7 1213.0,716.0 1213.0,717.0C1213.0,718.0 1213.7,719.3 1214.5,720.0C1215.3,720.7 1216.0,722.2 1216.0,723.5C1216.0,724.7 1216.9,726.5 1218.0,727.5C1219.1,728.5 1220.0,730.1 1220.0,731.0C1220.0,732.0 1220.7,733.3 1221.5,734.0C1222.3,734.7 1223.0,736.3 1223.0,737.5C1223.0,738.7 1223.7,740.3 1224.5,741.0C1225.3,741.7 1226.0,743.3 1226.0,744.5C1226.0,745.7 1226.7,747.3 1227.5,748.0C1228.3,748.7 1229.0,750.2 1229.0,751.5C1229.0,754.0 1231.4,756.4 1234.8,757.4C1236.4,757.9 1237.0,758.9 1237.0,760.9C1237.0,762.5 1237.7,764.3 1238.6,765.1C1239.4,765.8 1239.9,767.2 1239.7,768.1C1239.4,769.1 1240.1,770.7 1241.1,771.6C1242.3,772.7 1242.8,774.1 1242.4,775.4C1241.8,777.8 1244.2,780.6 1247.5,781.2C1248.8,781.4 1249.6,782.4 1249.8,784.2C1250.0,785.7 1250.8,787.4 1251.6,788.0C1252.4,788.7 1253.0,790.5 1253.0,792.0C1253.0,794.8 1254.4,796.5 1258.4,798.5C1259.9,799.3 1260.4,800.3 1260.2,802.1C1260.0,803.5 1260.6,805.2 1261.4,805.9C1262.2,806.6 1262.6,807.8 1262.3,808.6C1261.6,810.4 1264.6,813.9 1267.8,815.1C1269.4,815.7 1270.0,816.8 1270.0,818.8C1270.0,821.7 1272.0,824.2 1275.3,825.3C1276.4,825.7 1277.1,826.9 1277.0,828.2C1276.6,832.4 1277.0,833.1 1280.4,835.0C1283.1,836.6 1283.6,837.5 1283.2,839.5C1282.7,842.4 1285.3,847.0 1287.6,847.0C1290.5,847.0 1294.1,850.1 1293.4,852.2C1292.7,854.4 1295.3,857.8 1298.7,859.1C1300.5,859.8 1300.9,860.5 1300.4,862.8C1299.9,865.2 1300.4,866.1 1303.1,868.4C1304.9,870.0 1307.4,871.6 1308.7,872.1C1310.6,872.8 1311.0,873.7 1311.0,876.8C1311.0,880.7 1313.3,884.0 1315.9,884.0C1316.7,884.0 1316.9,884.7 1316.5,886.0C1316.2,887.0 1316.7,889.4 1317.7,891.2C1318.6,893.0 1319.4,894.7 1319.5,895.0C1319.7,896.9 1321.4,897.9 1323.5,897.4C1327.4,896.4 1331.8,900.1 1331.2,904.0C1330.7,907.3 1333.1,911.0 1335.7,911.0C1336.8,911.0 1336.6,911.7 1335.1,913.6C1332.2,917.3 1332.3,917.7 1338.9,924.7C1344.4,930.6 1344.8,930.8 1346.8,929.4C1350.4,926.9 1354.0,930.0 1354.0,935.4C1354.0,937.7 1353.5,940.1 1352.8,940.8C1351.8,941.8 1352.6,943.0 1356.2,946.7C1360.7,951.2 1361.0,951.3 1362.8,949.7C1365.3,947.4 1365.5,947.5 1371.0,951.5C1375.7,954.9 1375.8,955.1 1375.3,959.3C1375.0,961.6 1374.3,964.1 1373.7,964.8C1372.9,965.8 1373.3,966.8 1375.2,968.7C1377.7,971.1 1377.8,971.2 1380.4,969.5C1383.0,967.8 1383.1,967.8 1387.4,971.4C1391.6,974.8 1391.8,975.3 1391.3,978.8C1391.0,980.8 1390.3,983.1 1389.7,983.7C1389.1,984.6 1390.5,987.0 1395.0,992.0C1401.4,999.2 1402.9,1000.0 1405.0,997.5C1406.0,996.2 1406.6,996.4 1409.4,998.5C1411.2,999.9 1412.9,1001.0 1413.2,1001.0C1413.4,1001.0 1415.7,1003.0 1418.4,1005.4L1423.1,1009.8L1420.0,1013.3L1416.9,1016.8L1421.1,1020.2C1423.4,1022.0 1425.6,1024.5 1426.1,1025.8C1427.3,1029.0 1429.7,1029.6 1432.2,1027.4L1434.4,1025.5L1432.2,1028.7C1429.6,1032.4 1429.5,1033.3 1431.5,1035.0C1432.3,1035.7 1433.0,1037.0 1433.0,1038.0C1433.0,1041.1 1435.7,1042.5 1437.8,1040.6C1441.1,1037.7 1442.3,1038.6 1441.8,1043.5C1441.4,1046.8 1440.5,1048.6 1438.6,1050.1C1435.5,1052.5 1435.5,1055.7 1438.5,1057.4C1441.4,1059.0 1442.0,1060.1 1442.0,1064.2C1442.0,1068.5 1440.4,1069.2 1437.5,1066.0C1435.5,1063.8 1433.0,1064.8 1433.0,1067.8C1433.0,1068.6 1432.2,1070.2 1431.3,1071.2C1429.8,1072.9 1429.8,1073.2 1432.3,1075.8C1436.9,1080.6 1434.8,1084.1 1430.1,1079.6L1427.4,1077.0L1425.2,1079.3L1423.0,1081.6L1425.5,1084.0C1426.9,1085.3 1428.0,1086.8 1428.0,1087.4C1428.0,1087.9 1426.7,1087.2 1425.2,1085.7C1421.4,1082.1 1422.1,1082.0 1410.8,1087.6C1405.3,1090.3 1393.3,1090.6 1388.0,1088.3C1385.5,1087.2 1382.2,1086.0 1380.6,1085.6C1378.8,1085.2 1373.4,1080.6 1366.4,1073.8L1355.0,1062.7L1352.6,1064.9L1350.2,1067.2L1342.1,1060.3C1334.5,1054.0 1334.0,1053.3 1334.6,1050.5C1334.9,1048.8 1335.8,1046.8 1336.6,1045.9C1338.5,1043.7 1338.5,1043.8 1333.6,1038.0C1326.8,1030.1 1325.4,1029.3 1322.5,1032.0C1320.2,1034.2 1320.1,1034.2 1317.6,1032.4C1314.5,1030.1 1314.5,1029.6 1317.0,1026.0C1319.5,1022.5 1318.6,1020.4 1310.9,1011.7L1305.8,1005.9L1303.1,1008.4C1301.6,1009.8 1299.9,1011.0 1299.2,1011.0C1297.1,1011.0 1297.9,1007.5 1300.5,1005.0L1302.9,1002.7L1298.6,997.1C1292.6,989.4 1291.6,988.6 1290.0,990.5C1289.2,991.4 1287.9,992.5 1286.9,993.1C1283.9,994.6 1283.8,992.4 1286.6,989.1L1289.2,986.0L1285.0,980.5C1279.2,973.0 1278.7,972.6 1276.5,975.0C1274.7,977.0 1271.5,977.7 1270.7,976.2C1270.1,975.2 1272.5,969.8 1273.2,970.5C1273.5,970.8 1274.2,970.4 1274.9,969.7C1275.7,968.6 1274.8,967.1 1270.6,962.4C1265.4,956.7 1265.2,956.6 1263.3,958.2C1262.2,959.2 1260.3,960.0 1259.1,960.0C1257.1,960.0 1257.0,959.7 1257.6,956.2C1258.0,954.2 1258.7,952.0 1259.2,951.3C1260.5,949.7 1259.5,946.7 1257.0,944.5C1255.0,942.7 1254.9,942.7 1252.5,945.0C1247.8,949.5 1245.1,945.4 1249.5,940.2L1251.9,937.3L1248.3,933.1L1244.7,928.9L1242.6,930.9C1239.1,934.2 1236.6,933.7 1237.4,929.8C1237.7,928.1 1238.7,925.9 1239.5,925.0C1240.9,923.5 1240.9,923.0 1239.1,920.9L1237.2,918.5L1234.6,920.9C1230.7,924.5 1229.0,922.3 1232.5,918.2L1235.2,915.0L1233.0,912.0C1230.9,909.0 1227.4,908.1 1225.5,909.9C1224.1,911.1 1220.0,909.4 1220.0,907.6C1220.0,905.1 1221.2,903.0 1222.5,903.0C1225.6,903.0 1226.1,900.3 1223.7,897.4L1221.3,894.6L1218.0,897.3C1212.6,901.9 1210.9,898.3 1216.1,893.2L1219.1,890.3L1216.6,887.4L1214.2,884.5L1211.6,886.9C1208.5,889.8 1205.3,889.2 1207.0,885.9C1207.6,884.8 1207.9,883.2 1207.6,882.5C1207.3,881.7 1207.5,880.8 1208.1,880.4C1210.3,879.1 1207.0,877.0 1204.5,878.2C1200.9,879.8 1198.6,878.6 1200.1,875.8C1200.8,874.6 1202.2,872.8 1203.4,871.9L1205.5,870.2L1203.1,867.6L1200.6,865.0L1198.5,867.0C1195.0,870.3 1191.2,869.4 1193.1,865.8C1194.3,863.7 1191.0,859.0 1188.4,859.0C1185.8,859.0 1186.0,857.0 1189.1,853.5C1191.7,850.6 1192.0,849.7 1191.0,848.5C1189.8,847.1 1189.4,847.2 1187.0,849.5C1185.5,851.0 1184.0,851.7 1183.6,851.2C1183.3,850.7 1184.2,849.2 1185.5,848.0C1188.5,845.1 1188.6,844.6 1185.9,840.8L1183.8,837.9L1181.6,839.9C1178.2,843.1 1175.6,842.7 1176.3,839.1C1176.7,837.2 1176.4,835.8 1175.5,835.0C1174.2,833.9 1174.3,833.4 1176.1,830.8L1178.2,827.9L1175.4,824.9C1172.9,822.3 1172.5,822.2 1171.0,823.5C1168.1,826.2 1165.7,825.4 1166.3,822.1C1166.7,820.2 1166.4,818.8 1165.5,818.0C1164.2,816.9 1164.3,816.4 1166.0,814.0C1168.6,810.4 1168.5,809.8 1165.5,807.0C1163.2,804.8 1162.9,804.8 1161.2,806.3C1158.7,808.6 1156.0,808.5 1156.0,806.2C1156.0,805.1 1155.1,803.5 1154.0,802.5C1152.8,801.5 1152.2,799.9 1152.5,799.0C1152.8,798.1 1152.1,796.5 1151.0,795.5C1149.7,794.3 1149.2,793.0 1149.6,791.8C1149.9,790.7 1149.5,789.1 1148.6,788.1C1147.1,786.5 1147.1,786.2 1149.0,784.5C1152.8,781.1 1150.4,775.5 1146.4,778.5C1143.1,781.0 1142.5,780.1 1145.5,777.0C1148.1,774.2 1148.3,773.8 1146.8,772.4C1145.6,771.1 1144.8,771.0 1143.2,771.9C1139.8,773.7 1139.7,773.2 1142.5,769.8C1144.9,767.0 1145.0,766.5 1143.6,765.2C1142.2,763.8 1141.9,763.8 1140.2,765.3C1136.0,769.1 1134.7,766.9 1138.7,762.8C1140.9,760.5 1141.1,759.8 1140.0,758.5C1138.9,757.2 1138.5,757.2 1137.1,758.3C1133.6,761.3 1132.8,761.4 1133.2,758.4C1133.4,756.2 1133.0,755.3 1131.2,754.5C1129.5,753.7 1129.1,752.9 1129.5,751.3C1129.9,749.7 1129.4,748.7 1128.0,747.8C1126.9,747.1 1126.0,745.8 1126.0,744.9C1126.0,744.0 1125.1,742.5 1124.0,741.5C1122.9,740.5 1122.0,739.0 1122.0,738.2C1122.0,737.3 1121.1,735.7 1120.0,734.5C1118.5,732.9 1118.2,731.8 1118.9,729.5C1119.4,727.8 1120.2,726.6 1120.8,726.7C1121.3,726.8 1122.4,726.3 1123.1,725.4C1124.1,724.2 1123.9,723.5 1122.0,721.5C1120.8,720.2 1120.1,718.6 1120.5,718.0C1120.9,717.4 1120.6,716.2 1119.9,715.4C1118.9,714.1 1118.5,714.1 1116.9,715.6C1114.7,717.6 1112.0,716.8 1112.0,714.2C1112.0,713.2 1111.1,711.5 1110.0,710.5C1108.8,709.5 1108.1,708.1 1108.4,707.4C1108.7,706.7 1108.0,705.4 1106.8,704.4C1105.3,702.9 1104.9,701.7 1105.4,698.9C1105.8,696.1 1105.5,694.9 1104.1,693.6C1103.0,692.6 1102.4,691.2 1102.6,690.5C1102.9,689.7 1102.0,688.4 1100.6,687.5C1099.2,686.5 1098.0,685.2 1098.0,684.5C1098.0,683.9 1097.1,682.5 1095.9,681.4C1094.3,679.9 1093.9,678.8 1094.4,675.9C1094.8,673.1 1094.5,671.9 1093.1,670.5C1090.8,668.5 1091.7,664.9 1095.3,662.0C1097.4,660.2 1097.4,660.1 1095.7,658.3C1094.3,656.8 1093.6,656.7 1092.0,657.8C1089.4,659.4 1089.0,659.3 1089.0,657.1C1089.0,656.0 1088.0,654.4 1086.9,653.6C1084.2,651.8 1084.9,646.7 1088.1,644.1C1090.0,642.6 1090.1,642.3 1088.6,641.1C1087.3,640.0 1086.6,640.0 1085.8,640.8C1084.2,642.4 1082.0,642.3 1082.0,640.7C1082.0,639.9 1081.1,638.5 1079.9,637.4C1078.4,636.1 1077.9,634.6 1078.2,631.7C1078.4,628.8 1077.9,627.4 1076.6,626.4C1075.2,625.4 1074.9,624.3 1075.3,621.6C1075.7,619.0 1075.4,617.8 1073.9,616.4C1072.9,615.5 1072.0,614.1 1072.0,613.4C1072.0,612.6 1070.8,611.3 1069.4,610.3C1067.1,608.9 1066.9,608.1 1067.4,605.0C1067.9,602.1 1067.6,600.9 1066.0,599.5C1064.4,598.1 1064.1,596.9 1064.6,594.5C1065.1,591.9 1064.7,590.9 1063.0,589.7C1061.3,588.5 1060.9,587.4 1061.1,584.5C1061.4,581.9 1061.0,580.4 1059.7,579.5C1058.7,578.8 1058.0,576.9 1058.0,574.8C1058.0,572.5 1057.3,570.6 1055.9,569.4C1054.3,568.0 1053.9,566.7 1054.3,564.3C1054.8,561.7 1054.4,560.7 1052.5,559.3C1049.2,556.8 1050.0,549.3 1053.7,547.9C1056.6,546.8 1057.6,544.5 1056.0,542.5C1054.8,541.1 1054.4,541.2 1052.4,543.1C1051.1,544.3 1049.4,545.0 1048.6,544.7C1046.6,543.9 1048.2,537.3 1050.9,535.3C1053.3,533.7 1053.6,530.8 1051.6,529.1C1050.6,528.2 1050.0,528.3 1049.0,529.5C1047.0,531.9 1045.0,531.3 1045.0,528.3C1045.0,526.5 1046.0,524.8 1047.7,523.4C1050.1,521.5 1050.3,521.0 1049.1,519.6C1047.8,518.1 1047.5,518.1 1045.4,520.1C1041.9,523.4 1040.1,521.4 1041.1,515.3C1041.8,510.9 1041.6,510.3 1039.4,508.4C1036.2,505.7 1036.8,500.0 1040.6,497.5C1043.2,495.8 1043.6,494.0 1041.8,492.2C1041.0,491.4 1040.1,491.6 1038.2,493.0C1034.9,495.6 1033.7,494.6 1034.3,489.8C1034.6,487.2 1035.7,485.2 1037.4,483.9C1040.2,481.7 1040.6,480.0 1038.8,478.2C1037.9,477.3 1037.1,477.5 1035.4,479.1C1034.1,480.3 1032.6,480.9 1032.0,480.5C1030.2,479.4 1031.6,473.0 1034.0,471.3C1038.3,468.3 1035.4,459.0 1030.9,461.8C1029.9,462.5 1028.8,463.0 1028.5,463.0C1027.5,463.0 1029.3,457.5 1030.8,455.7C1032.6,453.7 1031.4,450.6 1028.9,450.4C1023.6,450.0 1023.7,450.2 1024.5,446.3C1024.9,444.2 1026.0,442.0 1027.1,441.2C1030.5,438.8 1028.5,434.0 1025.0,436.2C1024.0,436.8 1022.5,437.0 1021.5,436.7C1019.0,435.7 1020.4,428.1 1023.6,425.7C1026.2,423.7 1026.8,419.2 1024.8,417.2C1023.9,416.3 1023.1,416.5 1021.3,418.2C1018.2,421.1 1016.6,419.5 1017.4,414.3C1017.9,411.7 1018.8,410.1 1020.3,409.5C1021.9,408.8 1022.6,407.5 1022.8,404.9C1023.2,400.2 1021.0,398.2 1018.5,401.0C1015.6,404.2 1014.0,403.5 1014.0,399.0C1014.0,396.2 1014.7,394.4 1016.4,392.8C1019.3,390.0 1020.5,385.3 1018.9,383.4C1017.9,382.1 1017.4,382.2 1015.5,384.0C1014.2,385.2 1012.4,386.0 1011.4,385.9C1008.5,385.4 1007.0,386.8 1007.0,390.1C1007.0,393.6 1004.3,394.1 1001.5,391.0C1000.1,389.5 999.4,389.3 998.3,390.1C996.6,391.6 997.5,394.8 1000.6,397.8C1001.9,399.1 1003.0,401.1 1003.0,402.3C1003.0,403.5 1003.3,405.5 1003.6,406.7C1004.4,409.5 1001.6,410.9 999.0,409.2C997.6,408.3 996.9,408.4 995.9,409.7C994.8,411.0 994.9,411.5 997.0,413.2C999.9,415.5 1001.4,427.0 998.8,427.0C996.0,427.0 995.2,428.9 996.2,433.7C997.1,437.9 997.0,438.4 994.5,441.0C992.1,443.6 991.8,444.4 992.4,448.3C993.2,453.7 992.2,454.7 988.7,452.0C986.6,450.4 986.0,450.3 985.1,451.4C984.2,452.5 984.5,453.4 986.5,455.8C989.6,459.5 990.0,465.9 987.2,467.7C985.6,468.6 985.4,469.8 985.8,474.2C986.1,478.6 985.9,479.8 984.2,481.4C982.4,482.9 982.2,484.0 982.7,488.2C983.2,492.5 983.0,493.3 981.0,494.7C979.0,496.1 978.9,496.8 979.4,501.4C980.0,505.9 979.8,506.9 978.0,508.5C976.7,509.7 976.0,511.6 976.0,513.9C976.0,516.5 975.4,517.9 974.0,518.8C972.2,519.9 972.0,520.7 972.6,525.1C973.2,529.4 973.0,530.4 971.0,532.5C969.4,534.2 968.9,535.6 969.4,537.4C969.9,539.4 969.5,540.5 967.7,542.0C965.6,543.8 965.4,544.8 965.8,549.1C966.2,553.4 966.0,554.3 964.1,555.6C962.4,556.9 962.1,557.8 962.6,560.8C963.1,563.8 962.8,564.9 961.1,566.4C959.8,567.6 959.0,569.5 959.0,571.5C959.0,575.6 958.2,576.3 955.4,574.5C952.3,572.5 949.8,575.0 952.8,577.2C956.0,579.5 956.5,583.8 953.7,586.0C951.9,587.4 951.4,588.6 951.7,590.5C952.0,591.8 951.9,593.7 951.6,594.6C951.0,596.1 950.8,596.1 948.6,594.7C944.6,592.0 943.3,594.8 947.0,598.1C950.7,601.5 951.2,607.6 948.0,610.5C946.9,611.5 946.0,612.8 946.0,613.5C946.0,614.2 945.1,615.5 944.0,616.5C942.4,617.9 942.1,619.1 942.6,621.3C943.0,623.5 942.7,624.7 941.0,626.5C939.4,628.2 938.9,629.7 939.2,631.9C939.5,634.2 939.1,635.5 937.3,637.2C936.0,638.4 935.0,639.8 935.0,640.4C935.0,641.0 934.1,642.1 933.1,642.7C931.5,643.7 931.3,644.7 931.7,648.0C932.2,651.2 931.9,652.4 930.4,653.4C929.1,654.4 928.6,655.8 928.8,658.7C929.0,661.6 928.6,663.1 927.1,664.4C926.0,665.4 925.4,666.8 925.7,667.6C926.6,670.1 923.0,670.4 920.6,668.1C918.1,665.7 918.2,665.7 915.3,670.5C913.0,674.2 912.8,675.0 913.4,676.6C913.7,677.5 914.9,678.4 915.9,678.7C918.8,679.4 919.5,684.8 917.0,687.5C915.9,688.7 915.0,690.3 915.0,691.2C915.0,692.0 914.1,693.5 913.0,694.5C911.8,695.5 911.2,697.0 911.4,697.7C912.3,700.0 909.9,700.3 907.6,698.1C905.9,696.5 905.1,696.3 904.2,697.2C902.4,699.0 902.7,700.1 905.7,703.2C907.2,704.7 907.9,706.0 907.3,706.0C906.8,706.0 905.5,705.1 904.5,704.0C902.6,701.9 900.0,702.8 900.0,705.5C900.0,706.2 899.1,707.9 898.0,709.3C895.4,712.6 895.5,714.6 898.4,716.5C901.1,718.3 902.4,722.0 901.0,723.4C900.4,724.0 899.1,723.5 897.4,721.9L894.8,719.5L891.9,722.8C888.6,726.5 888.6,728.0 891.8,729.5C894.7,730.8 895.7,735.6 893.6,737.9C892.7,738.9 892.0,740.6 892.0,741.8C892.0,745.0 890.1,745.5 887.4,742.9L885.0,740.6L882.0,743.5C880.3,745.1 879.0,746.9 879.0,747.6C879.0,748.2 878.3,749.3 877.5,750.0C876.7,750.7 876.0,752.0 876.0,753.0C876.0,754.0 875.3,755.3 874.5,756.0C873.7,756.7 873.0,758.4 873.0,759.9C873.0,761.5 872.2,763.0 870.9,763.8C868.9,765.1 868.9,765.1 871.9,768.6C875.6,772.7 875.6,773.1 872.9,774.8C871.6,775.7 871.0,776.8 871.3,778.0C871.6,779.1 871.0,780.6 869.8,781.7C868.8,782.6 868.1,784.2 868.3,785.2C869.1,788.2 866.2,789.7 863.0,787.8C860.4,786.3 860.1,786.3 858.2,788.3L856.1,790.3L858.6,793.5C861.0,796.7 861.0,796.7 859.0,798.5C857.8,799.5 857.2,801.1 857.5,802.0C857.8,802.9 857.1,804.5 856.0,805.5C854.7,806.6 854.2,808.0 854.6,809.2C855.5,812.0 852.3,812.6 849.6,810.1C847.6,808.2 847.2,808.1 846.0,809.5C845.0,810.7 845.0,811.3 846.0,812.5C846.6,813.3 847.0,814.5 846.7,815.2C846.5,815.9 846.7,817.3 847.2,818.3C847.9,819.7 847.6,820.7 846.1,822.4C844.8,823.8 844.2,825.3 844.6,826.3C845.7,829.3 842.1,829.5 839.1,826.6L836.4,824.0L834.2,826.3C831.9,828.7 832.7,831.0 835.7,831.0C836.4,831.0 837.0,831.6 837.0,832.2C837.0,832.9 837.3,834.5 837.6,835.7C838.5,839.0 835.5,839.8 832.6,837.1L830.2,834.9L828.2,837.7C826.2,840.5 826.2,840.6 828.1,842.9C830.3,845.7 830.5,847.3 828.6,848.9C827.9,849.5 827.5,851.1 827.8,852.5C828.1,854.4 827.7,855.2 825.8,855.9C822.5,857.1 820.5,859.8 820.5,862.9C820.5,866.1 817.6,866.9 814.9,864.4C813.1,862.8 812.9,862.8 810.9,864.6L808.8,866.5L810.9,868.1C813.3,870.1 814.6,874.5 813.0,875.5C812.4,875.9 810.8,875.5 809.5,874.6C807.6,873.4 807.0,873.3 806.1,874.4C805.5,875.1 805.3,876.0 805.7,876.4C806.1,876.8 806.6,879.1 806.7,881.6C807.0,885.3 806.7,886.0 805.2,886.0C802.3,886.0 799.7,889.5 800.4,892.4C800.9,894.5 800.5,895.1 797.2,896.7C793.9,898.3 793.5,898.9 793.7,902.1C794.0,906.9 790.4,909.0 786.4,906.3C784.0,904.8 783.8,904.8 781.7,906.8C779.8,908.7 779.8,909.1 781.2,910.7C783.5,913.4 784.3,918.9 782.5,919.6C781.6,920.0 780.4,919.7 779.6,919.1C777.5,917.4 776.2,919.8 776.6,925.0C776.8,928.9 776.5,929.8 774.3,931.4C771.8,933.2 771.5,933.2 768.9,931.8C766.0,930.1 763.0,931.5 764.9,933.6C765.4,934.1 766.1,936.3 766.5,938.6C767.1,942.2 766.8,942.9 764.6,944.3C763.2,945.3 761.4,946.0 760.7,946.0C758.1,946.0 755.8,949.7 756.4,952.7C757.0,955.1 756.6,955.9 754.1,957.8C751.2,959.9 751.1,959.9 748.8,958.0C746.5,956.2 746.5,956.2 744.3,958.2C742.4,960.0 742.2,960.6 743.3,961.9C746.8,966.1 747.0,968.6 744.2,971.2C738.5,976.3 738.1,976.4 736.0,974.5C734.1,972.8 733.8,972.7 732.3,974.3C731.0,975.6 730.9,976.2 731.8,977.2C732.5,977.9 733.0,980.3 733.0,982.6C733.0,986.4 732.6,987.0 729.9,988.4C727.6,989.6 726.3,989.7 724.8,988.9C722.2,987.5 716.3,992.5 718.1,994.6C718.9,995.6 718.7,996.5 717.6,998.2C716.7,999.4 716.0,1001.9 716.0,1003.6C716.0,1005.9 715.3,1007.2 713.4,1008.5C710.9,1010.1 710.7,1010.1 708.6,1008.1L706.4,1006.0L703.0,1009.5C700.0,1012.6 699.7,1013.3 700.8,1015.1C701.5,1016.2 701.8,1017.5 701.5,1018.0C701.2,1018.5 701.4,1019.9 702.0,1021.0C702.9,1022.7 702.4,1023.5 698.8,1027.0L694.6,1030.9L691.3,1029.0L688.1,1027.1L682.5,1033.2L676.8,1039.3L679.4,1041.7C682.9,1044.9 682.7,1047.0 678.2,1051.1C672.4,1056.6 669.5,1057.7 667.0,1055.5C665.1,1053.8 664.7,1054.1 649.0,1069.6L632.9,1085.5L635.5,1087.7C636.9,1088.9 638.0,1090.2 638.0,1090.5C638.0,1091.9 635.2,1090.7 632.8,1088.4ZM282.0,767.4C281.1,767.1 280.0,765.9 279.5,764.7C278.3,762.0 274.8,761.3 273.0,763.5C271.4,765.4 267.6,765.4 266.0,763.5C265.1,762.4 264.4,762.2 263.6,763.0C263.1,763.5 261.6,764.0 260.4,764.0C257.5,764.0 257.0,761.1 257.0,744.4C257.0,730.2 257.6,728.7 261.5,733.0C264.9,736.7 266.0,733.9 266.0,722.1C266.0,712.1 265.8,711.2 263.6,709.3C261.9,707.8 261.1,705.7 260.5,701.5C259.9,696.2 260.0,695.6 262.6,692.9L265.3,690.1L264.0,678.9L262.7,667.7L265.2,665.8C267.6,664.1 267.7,663.6 267.2,657.4C266.8,651.4 266.9,650.8 269.0,649.3C271.1,647.8 271.2,647.3 270.6,639.5C270.1,632.1 270.2,631.1 272.1,629.4C273.8,627.9 274.1,626.5 273.9,620.8C273.7,614.9 274.0,613.6 276.0,611.5C277.9,609.5 278.2,608.4 277.6,605.0C277.1,601.6 277.3,600.7 279.3,599.0C281.4,597.2 281.6,596.2 281.2,591.9C280.8,587.6 281.0,586.7 282.8,585.4C284.6,584.2 284.8,583.3 284.3,578.5C283.7,572.5 285.4,570.5 289.0,572.8C292.2,574.8 293.5,571.8 290.5,569.2C287.3,566.4 287.0,560.1 289.9,558.3C291.4,557.4 291.6,556.3 291.2,552.0C290.8,547.9 291.1,546.5 292.8,544.7C294.4,542.9 294.6,541.7 294.1,538.0C293.5,534.3 293.7,533.1 295.4,531.2C296.9,529.5 297.3,527.8 297.1,523.9C296.9,519.7 297.2,518.5 298.9,517.3C300.1,516.5 301.0,515.3 301.0,514.6C301.0,513.9 301.9,512.5 303.1,511.4C304.9,509.8 305.1,508.8 304.5,504.5C304.0,500.1 304.2,499.1 306.0,497.5C307.6,496.0 308.0,494.8 307.6,492.4C307.1,490.1 307.5,488.9 309.0,487.5C310.3,486.3 311.0,484.4 311.0,482.0C311.0,479.6 311.7,477.7 313.0,476.5C314.1,475.5 315.0,473.9 315.0,473.0C315.0,472.0 315.7,470.7 316.5,470.0C317.3,469.3 318.0,467.3 318.0,465.5C318.0,463.7 318.7,461.7 319.5,461.0C320.7,460.0 320.9,458.6 320.5,455.5C319.9,451.8 320.1,451.2 322.4,449.6C323.8,448.7 325.0,447.2 325.0,446.2C325.0,445.3 325.9,443.9 327.0,443.2C328.1,442.5 329.0,441.1 329.0,440.1C329.0,439.1 329.7,437.7 330.5,437.0C331.3,436.3 332.0,435.0 332.0,434.1C332.0,433.1 333.4,431.4 335.1,430.1C337.4,428.4 337.9,427.5 337.0,426.5C336.2,425.5 336.2,425.0 337.1,424.5C337.8,424.0 338.0,422.1 337.7,419.3C337.3,415.5 337.6,414.5 339.5,412.8C340.8,411.7 341.6,410.2 341.4,409.5C341.1,408.7 342.8,406.8 345.5,405.0C348.9,402.7 349.9,401.4 349.5,400.1C349.2,399.1 349.6,397.7 350.5,397.0C351.3,396.3 352.0,394.5 352.0,393.0C352.0,391.5 352.7,389.7 353.5,389.0C354.3,388.3 355.0,386.8 355.0,385.6C355.1,384.3 356.4,382.7 358.3,381.5C360.6,380.0 361.5,378.7 361.5,376.8C361.6,374.8 362.6,373.4 365.0,371.7C367.6,370.0 368.5,368.7 368.5,366.6C368.5,363.7 372.2,360.1 375.1,360.0C377.7,360.0 379.1,357.5 378.8,353.6C378.6,350.7 379.1,349.6 381.0,348.2C384.4,345.8 388.2,344.9 389.6,346.1C390.5,346.9 391.9,346.2 394.7,343.7C397.9,340.7 398.2,340.0 397.1,338.7C396.4,337.8 396.1,336.6 396.5,336.1C396.8,335.5 396.6,334.1 396.0,333.0C395.0,331.1 396.4,329.3 411.1,314.6C426.7,298.9 427.4,298.4 431.1,298.6C433.3,298.7 435.6,299.3 436.4,299.9C438.4,301.6 440.7,298.6 439.0,296.5C436.5,293.5 442.4,284.3 446.2,285.3C449.3,286.2 451.4,284.6 454.4,279.5C456.7,275.7 457.5,275.0 459.9,275.2C463.1,275.4 465.6,273.8 466.5,270.9C466.9,269.6 468.1,269.0 470.0,269.0C472.1,269.0 473.7,268.0 475.9,265.4C477.9,262.9 479.4,261.9 480.5,262.4C482.4,263.1 487.0,258.9 487.0,256.5C487.0,255.6 487.9,255.0 489.4,255.0C490.7,255.0 492.3,254.3 493.0,253.5C494.7,251.5 495.4,251.6 498.8,254.5C502.8,257.8 504.2,256.2 503.3,249.2L502.7,244.0L505.7,244.0C507.4,244.0 509.3,243.3 510.0,242.5C510.7,241.7 511.8,241.0 512.5,241.0C513.1,241.0 514.5,240.1 515.5,239.0C516.6,237.8 518.6,237.0 520.6,237.0C522.4,237.0 524.2,236.6 524.5,236.0C524.8,235.5 526.8,235.0 528.9,235.0C531.1,235.0 533.3,234.4 534.0,233.5C534.7,232.7 536.0,232.0 537.0,232.0C537.9,232.0 539.5,231.1 540.5,230.0C541.6,228.8 543.0,228.2 544.1,228.5C545.3,228.9 546.4,228.4 547.2,227.1C547.9,225.9 549.2,225.0 550.1,225.0C551.0,225.0 552.5,224.1 553.5,223.0C554.7,221.7 556.6,221.0 559.0,221.0C561.1,221.0 563.3,220.3 564.0,219.5C564.7,218.7 566.0,218.0 567.0,218.0C567.9,218.0 569.5,217.1 570.6,215.9C572.0,214.3 573.2,214.0 575.8,214.5C578.5,215.0 579.7,214.7 581.5,213.0C582.8,211.8 584.3,211.1 584.9,211.4C585.5,211.8 586.5,211.2 587.2,210.0C588.2,208.5 589.5,208.0 592.6,208.0C595.4,208.0 597.3,207.4 598.5,206.0C599.5,204.9 600.6,204.2 601.0,204.5C601.4,204.7 602.8,203.8 604.1,202.4C605.9,200.5 607.0,200.1 609.3,200.6C611.5,201.0 612.7,200.7 614.5,199.0C616.3,197.3 617.5,197.0 619.9,197.5C622.3,198.0 623.2,197.7 624.2,196.1C626.0,193.2 633.7,193.2 637.2,196.0C639.8,198.0 642.0,197.2 642.0,194.3C642.0,193.5 643.0,191.6 644.2,189.9C646.3,187.1 646.9,186.9 651.7,187.1C655.5,187.3 657.5,186.9 658.8,185.7C659.8,184.8 661.3,184.0 662.2,184.0C663.0,184.0 664.5,183.2 665.4,182.1C666.7,180.6 668.0,180.4 671.6,180.8C675.3,181.2 676.5,180.9 678.5,179.0C680.2,177.4 681.7,176.9 683.9,177.2C686.1,177.5 687.5,177.1 688.7,175.8C689.6,174.8 691.7,174.0 693.6,174.0C695.9,174.0 697.4,173.3 698.7,171.4C700.5,169.0 700.9,168.9 705.8,169.8C710.3,170.6 711.2,170.5 712.7,168.8C714.2,167.2 715.3,166.9 719.1,167.4C722.9,167.9 724.0,167.7 725.5,166.0C726.9,164.5 728.4,164.0 730.8,164.2C733.4,164.4 734.6,163.9 735.9,162.1C737.6,159.9 738.3,159.8 742.8,160.3C747.0,160.8 748.1,160.6 749.6,158.9C750.9,157.5 752.4,157.0 754.8,157.2C757.3,157.4 758.6,156.9 759.9,155.2C761.5,153.0 762.0,152.9 766.9,153.8C771.8,154.7 772.2,154.6 773.6,152.4C774.5,151.2 775.8,150.4 776.5,150.6C777.2,150.9 778.6,150.0 779.5,148.6C781.4,145.8 784.8,145.2 789.4,147.0C791.5,147.8 792.2,147.5 793.7,145.4C795.3,143.3 795.9,143.1 798.7,143.9C801.6,144.7 802.2,144.5 803.8,142.4C805.9,139.4 810.5,139.9 811.3,143.1C812.0,145.6 814.6,146.5 816.5,145.0C817.9,143.8 817.9,143.5 816.5,142.0C814.3,139.6 814.5,136.6 816.9,137.3C818.2,137.6 819.7,136.9 821.1,135.4C822.8,133.6 824.1,133.1 826.0,133.5C827.9,133.9 829.2,133.5 830.5,132.0C831.9,130.4 833.4,129.9 836.3,130.2C839.1,130.4 840.6,129.9 841.5,128.7C842.2,127.7 843.6,127.0 844.6,127.2C845.8,127.4 846.9,126.6 847.5,125.2C848.4,123.1 849.0,122.9 852.7,123.4C855.7,123.8 857.2,123.5 858.1,122.4C858.8,121.6 860.2,121.1 861.2,121.3C862.4,121.7 863.6,121.0 864.7,119.3C865.8,117.7 867.0,117.0 868.2,117.3C869.4,117.7 870.6,117.0 871.7,115.4C872.6,114.0 873.8,113.1 874.4,113.3C875.0,113.6 876.5,112.8 877.7,111.8C880.4,109.3 884.1,110.0 885.5,113.2C886.9,116.3 889.7,116.6 893.1,114.1C894.6,112.9 896.6,112.0 897.3,112.0C898.1,112.0 899.3,111.3 900.0,110.5C900.7,109.7 902.3,109.0 903.5,109.0C904.7,109.0 906.3,108.3 907.0,107.5C907.7,106.7 909.0,106.0 910.0,106.0C913.5,106.0 914.5,103.2 912.0,100.5C910.7,99.1 910.0,97.7 910.3,97.3C911.0,96.6 917.1,101.8 919.8,105.3C921.2,107.1 921.4,107.0 924.5,104.0L927.7,100.9L928.3,109.2C929.7,126.1 928.9,128.9 924.5,124.0C921.4,120.6 920.0,123.1 920.0,132.0C920.0,139.3 920.2,140.0 922.7,141.8C925.0,143.4 925.4,144.6 925.8,149.9C926.3,157.0 924.6,158.8 920.6,155.1C917.3,152.0 915.8,154.2 916.2,161.6C916.4,166.1 916.9,167.5 918.5,168.4C921.5,170.0 922.0,171.1 922.0,175.8C922.0,180.5 920.5,181.3 917.5,178.0C914.7,174.9 912.8,177.2 913.2,183.4C913.4,187.6 913.9,188.7 915.7,189.5C918.0,190.5 919.0,193.4 919.3,200.0C919.6,204.2 916.9,206.2 914.2,203.7C912.8,202.4 912.1,202.3 911.2,203.2C909.3,205.1 909.8,207.5 912.5,209.8C915.7,212.6 916.2,221.0 913.2,221.0C912.2,221.0 910.9,220.5 910.4,220.0C908.7,218.3 906.3,221.7 907.7,223.8C908.3,224.8 909.3,225.4 909.8,225.3C910.4,225.2 911.1,227.0 911.5,229.3C911.8,231.6 912.4,234.9 912.6,236.5C913.0,238.8 912.6,240.1 910.6,241.9C908.4,243.9 908.2,244.8 908.7,248.9C909.2,253.1 909.0,253.8 906.7,255.3C904.4,256.8 904.3,257.2 905.1,261.6C905.9,266.0 905.8,266.6 903.5,269.0C902.1,270.5 901.0,272.8 901.0,274.4C901.0,275.9 900.1,277.9 899.1,278.8C897.4,280.3 897.3,281.2 898.0,285.5C898.8,290.1 898.6,290.6 896.4,292.4C894.4,293.9 894.1,294.8 894.5,297.4C895.0,299.8 894.7,301.0 893.1,302.4C891.5,303.9 891.1,305.1 891.6,307.4C892.0,309.8 891.6,311.0 890.1,312.4C888.7,313.7 888.0,315.5 888.0,317.9C888.0,320.4 887.4,321.9 886.1,322.7C884.6,323.7 884.2,324.7 884.7,327.2C885.1,329.7 884.7,331.0 883.1,332.4C881.9,333.5 881.0,335.1 881.0,336.0C881.0,336.9 880.1,338.5 879.1,339.4C877.6,340.7 877.3,342.0 877.7,344.4C878.2,347.4 877.9,347.8 875.4,348.8C873.8,349.4 871.1,351.0 869.5,352.3L866.5,354.8L868.8,357.2C871.3,360.0 871.7,365.1 869.5,367.0C868.7,367.7 868.0,369.0 868.0,369.9C868.0,370.8 867.1,372.1 866.0,372.8C864.9,373.5 864.0,375.1 864.0,376.3C864.0,378.1 862.9,379.2 859.5,380.9C853.8,383.7 853.3,384.6 855.9,387.4C858.4,390.0 858.7,395.2 856.5,397.0C855.7,397.7 855.0,399.3 855.0,400.5C855.0,401.7 854.3,403.3 853.5,404.0C852.7,404.7 852.0,405.9 852.0,406.8C852.0,407.6 851.2,409.2 850.3,410.2C849.3,411.3 848.5,413.1 848.5,414.2C848.5,415.7 847.2,417.0 844.5,418.5C841.2,420.2 840.5,421.0 840.8,423.1C840.9,424.6 840.4,426.3 839.5,427.0C838.7,427.7 838.0,429.2 838.0,430.5C838.0,431.7 837.1,433.5 836.0,434.5C834.9,435.5 834.0,437.1 834.0,438.0C834.0,440.0 829.9,444.0 827.8,444.0C825.3,444.0 822.7,447.6 823.4,450.3C823.8,451.9 823.4,453.2 822.5,454.0C821.7,454.7 821.0,456.5 821.0,458.0C821.0,459.7 820.3,461.0 819.2,461.4C813.1,463.6 809.7,466.9 810.4,470.0C810.8,472.2 810.3,473.1 808.0,474.9C806.4,476.0 804.6,477.0 804.1,477.0C802.2,477.0 799.9,481.7 800.5,484.2C801.5,488.3 794.3,491.9 791.2,488.8C789.4,487.0 784.4,492.1 785.5,494.7C786.0,495.7 786.5,498.1 786.6,500.1C786.9,503.5 786.5,504.2 780.9,509.0L774.9,514.2L772.4,511.9L769.8,509.5L766.8,513.0C765.1,514.9 757.0,523.4 748.7,531.8C735.3,545.3 733.7,547.3 734.7,548.9C736.2,551.3 734.4,554.7 727.5,563.0C723.5,567.8 722.0,568.9 720.1,568.6C716.5,568.0 713.1,569.6 712.1,572.2C711.5,573.5 709.1,577.1 706.5,580.3C702.3,585.7 701.6,586.1 698.9,585.5C695.7,584.8 692.0,587.0 692.0,589.7C692.0,593.2 688.9,595.9 685.0,595.7C680.9,595.6 678.0,597.3 678.0,599.9C677.9,602.9 674.5,606.4 672.1,605.7C670.4,605.3 669.4,606.0 667.3,609.2C665.4,612.0 664.1,613.0 662.8,612.7C661.6,612.3 659.9,613.5 657.7,616.1C655.8,618.3 653.4,620.0 652.3,620.0C651.2,620.0 649.7,620.7 649.0,621.5C648.3,622.3 646.7,623.0 645.5,623.0C644.3,623.0 642.7,623.7 641.9,624.6C641.2,625.4 639.8,625.9 638.8,625.7C637.1,625.2 632.0,630.0 632.0,632.1C632.0,632.6 631.2,633.0 630.2,633.0C629.1,633.0 627.5,633.9 626.5,635.0C625.5,636.1 623.7,637.0 622.5,637.0C621.2,637.0 619.6,637.7 618.9,638.6C618.0,639.8 616.5,640.1 613.8,639.7C611.3,639.4 609.7,639.7 608.9,640.7C608.2,641.4 606.5,642.0 605.1,641.8C603.2,641.6 602.2,642.1 601.5,643.8C601.0,645.0 599.8,646.0 598.9,646.0C598.0,646.0 596.5,646.9 595.5,648.0C594.5,649.1 592.9,650.0 592.0,650.0C591.1,650.0 589.5,650.9 588.5,652.0C587.1,653.6 585.9,653.9 583.7,653.4C581.5,653.0 580.3,653.3 578.5,655.0C577.2,656.2 575.7,657.0 575.2,656.6C574.7,656.3 573.3,657.1 572.0,658.5C570.3,660.3 569.1,660.7 566.6,660.3C564.4,660.0 563.0,660.3 562.1,661.4C561.4,662.3 559.9,663.0 558.9,663.0C557.9,663.0 556.3,664.2 555.3,665.6C553.9,667.9 553.1,668.1 550.0,667.6C547.1,667.2 545.9,667.5 544.5,669.0C543.2,670.4 542.0,670.7 539.8,670.3C537.7,669.9 536.3,670.3 534.6,671.9C532.8,673.6 531.6,673.9 529.6,673.4C527.6,672.9 526.3,673.3 524.5,675.0C522.8,676.6 521.3,677.1 519.0,676.8C516.7,676.4 515.5,676.8 514.4,678.4C513.4,679.8 512.1,680.4 509.9,680.2C507.7,680.0 505.9,680.7 504.4,682.1C502.7,683.7 501.3,684.1 499.2,683.7C497.0,683.3 495.8,683.6 494.5,685.0C493.3,686.3 491.4,687.0 489.0,687.0C486.6,687.0 484.7,687.7 483.6,688.9C482.2,690.5 481.3,690.6 478.8,689.9C475.4,689.0 473.0,690.1 473.0,692.8C473.0,693.9 472.2,694.1 469.0,693.6C465.7,693.1 464.8,693.3 463.8,695.0C461.8,698.2 457.1,697.5 455.7,693.7C454.8,691.3 452.3,690.5 450.5,692.0C449.1,693.2 449.2,693.5 451.0,695.5C454.3,699.0 453.6,700.3 449.0,699.7C445.5,699.3 444.7,699.5 443.3,701.7C441.3,704.8 437.5,704.1 434.4,700.2C432.5,697.9 432.0,697.7 430.6,698.9C429.1,700.1 429.1,700.5 430.5,702.0C432.6,704.4 432.4,707.0 430.0,707.0C428.9,707.0 427.5,707.9 426.8,709.0C425.8,710.5 424.4,711.0 421.4,711.0C418.9,711.0 416.7,711.6 415.9,712.6C415.1,713.5 413.4,714.0 411.4,713.8C409.0,713.6 407.5,714.2 406.0,715.8C404.9,717.0 403.8,718.0 403.7,718.0C403.6,718.0 402.0,717.6 400.2,717.1C397.4,716.2 396.8,716.4 395.4,718.5C394.5,719.8 393.2,720.6 392.5,720.4C391.8,720.1 390.4,721.0 389.5,722.4C388.0,724.6 387.3,724.9 384.1,724.4C381.3,723.9 380.1,724.3 378.7,725.8C377.2,727.4 376.2,727.6 373.4,727.0C370.6,726.3 369.7,726.5 368.6,728.2C367.8,729.3 366.4,730.0 365.4,729.8C364.2,729.6 363.1,730.4 362.5,731.8C361.6,733.9 361.0,734.1 357.2,733.7C353.7,733.3 352.7,733.6 351.5,735.3C350.7,736.5 349.5,737.0 348.6,736.7C347.6,736.3 346.4,737.0 345.4,738.5C344.5,739.9 343.0,741.0 342.0,741.0C341.1,741.0 339.5,741.9 338.5,743.0C337.5,744.2 336.1,744.9 335.4,744.6C334.7,744.3 333.4,745.0 332.4,746.2C331.0,747.7 329.7,748.1 327.0,747.7C324.5,747.4 322.9,747.8 321.4,749.2C319.2,751.1 319.2,751.1 315.7,748.1C312.9,745.6 312.0,745.3 311.1,746.4C310.3,747.4 310.5,748.1 312.0,749.5C314.7,751.9 314.6,754.4 312.0,753.7C310.5,753.3 309.4,753.9 308.3,755.7C307.2,757.3 306.0,758.0 304.8,757.7C303.6,757.4 302.5,757.9 301.7,759.1C301.1,760.1 299.6,761.0 298.4,761.0C297.3,761.0 295.5,761.9 294.5,763.0C293.5,764.2 292.1,764.9 291.4,764.6C290.7,764.3 289.4,765.0 288.4,766.1C286.8,767.9 285.2,768.2 282.0,767.4Z"/><path fill="#AC1317" fill-rule="evenodd" d="M489.5,2107.0C487.9,2105.2 486.4,2105.0 477.5,2105.0C469.6,2105.0 467.0,2104.7 466.0,2103.5C465.1,2102.4 462.6,2102.0 456.0,2102.0C449.4,2102.0 446.9,2101.6 446.0,2100.5C445.1,2099.4 442.8,2099.0 438.0,2099.0C432.6,2099.0 431.0,2098.6 429.5,2097.0C428.1,2095.4 426.4,2095.0 422.0,2095.0C418.1,2095.0 415.8,2094.5 415.0,2093.5C414.3,2092.7 412.1,2092.0 410.0,2092.0C407.9,2092.0 405.7,2091.3 405.0,2090.5C404.2,2089.5 402.0,2089.0 398.5,2089.0C394.6,2089.0 392.9,2088.5 391.5,2087.0C390.4,2085.8 388.4,2085.0 386.5,2085.0C384.7,2085.0 382.7,2084.3 382.0,2083.5C381.3,2082.7 379.9,2082.0 378.8,2082.0C377.7,2082.0 375.7,2081.1 374.3,2080.0C372.7,2078.8 370.9,2078.2 369.6,2078.6C368.2,2078.9 366.4,2078.3 364.8,2077.1C363.3,2075.9 360.7,2075.0 358.7,2075.0C356.8,2075.0 354.7,2074.3 354.0,2073.5C353.3,2072.7 352.2,2072.0 351.5,2072.0C350.8,2072.0 349.1,2071.1 347.7,2070.0C346.3,2068.9 344.5,2068.0 343.7,2068.0C342.9,2068.0 341.7,2067.3 341.0,2066.5C340.3,2065.7 338.1,2065.0 336.0,2065.0C333.9,2065.0 331.7,2064.3 331.0,2063.5C330.3,2062.7 329.0,2062.0 328.0,2062.0C327.1,2062.0 325.5,2061.1 324.5,2060.0C323.5,2058.9 321.7,2058.0 320.5,2058.0C319.2,2058.0 317.7,2057.3 317.0,2056.5C316.3,2055.7 315.0,2055.0 314.1,2055.0C313.1,2055.0 310.8,2053.4 308.9,2051.4C306.0,2048.4 305.0,2048.0 302.3,2048.5C299.5,2049.0 298.7,2048.6 295.4,2045.0C293.4,2042.8 290.9,2041.0 290.0,2041.0C289.1,2041.0 287.1,2039.7 285.5,2038.0C283.9,2036.3 281.9,2035.0 281.0,2035.0C280.1,2035.0 278.5,2034.1 277.5,2033.0C276.5,2031.9 274.7,2031.0 273.5,2031.0C272.3,2031.0 270.1,2029.7 268.5,2028.0C266.9,2026.3 264.9,2025.0 264.0,2025.0C263.2,2025.0 260.0,2022.5 257.0,2019.5C253.9,2016.4 250.7,2014.0 249.5,2014.0C248.3,2014.0 245.3,2011.8 242.5,2009.0C239.8,2006.2 236.9,2004.0 236.0,2004.0C235.2,2004.0 230.7,2000.2 226.0,1995.5C221.4,1990.9 216.8,1987.0 215.9,1986.8C213.4,1986.4 172.0,1945.1 172.0,1943.1C172.0,1942.2 168.2,1937.7 163.5,1933.0C158.8,1928.3 155.0,1923.8 155.0,1923.0C155.0,1922.1 152.8,1919.2 150.0,1916.5C147.1,1913.7 145.0,1910.7 145.0,1909.5C145.0,1908.3 143.6,1906.1 142.0,1904.5C140.3,1902.9 139.0,1900.9 139.0,1900.0C139.0,1899.1 137.4,1896.9 135.5,1895.0C133.6,1893.1 132.0,1891.0 132.0,1890.2C132.0,1889.4 130.4,1886.8 128.5,1884.4C126.6,1882.1 125.0,1879.5 125.0,1878.8C125.0,1878.0 123.4,1875.9 121.5,1874.0C119.6,1872.1 118.0,1869.9 118.0,1868.9C118.0,1868.0 117.3,1866.7 116.5,1866.0C115.7,1865.3 115.0,1863.7 115.0,1862.5C115.0,1861.3 114.3,1859.7 113.5,1859.0C112.7,1858.3 112.0,1857.0 112.0,1856.0C112.0,1855.1 111.1,1853.5 110.0,1852.5C108.9,1851.5 108.0,1849.9 108.0,1849.0C108.0,1848.0 107.3,1846.7 106.5,1846.0C105.7,1845.3 105.0,1843.8 105.0,1842.5C105.0,1841.3 104.1,1839.5 103.0,1838.5C101.9,1837.5 101.0,1835.9 101.0,1835.0C101.0,1834.0 100.3,1832.7 99.5,1832.0C98.7,1831.3 98.0,1830.0 98.0,1829.0C98.0,1828.0 97.3,1826.7 96.5,1826.0C95.7,1825.3 95.0,1823.8 95.0,1822.5C95.0,1821.3 94.1,1819.5 93.0,1818.5C91.9,1817.5 91.0,1815.9 91.0,1815.0C91.0,1814.0 90.3,1812.7 89.5,1812.0C88.7,1811.3 88.0,1809.1 88.0,1807.0C88.0,1804.9 87.3,1802.7 86.5,1802.0C85.7,1801.3 85.0,1799.1 85.0,1797.0C85.0,1794.6 84.3,1792.7 83.0,1791.5C81.9,1790.5 81.0,1788.9 81.0,1788.0C81.0,1787.0 80.3,1785.7 79.5,1785.0C78.7,1784.3 78.0,1782.1 78.0,1780.0C78.0,1777.6 77.3,1775.7 76.0,1774.5C74.5,1773.1 74.0,1771.4 74.0,1767.5C74.0,1764.0 73.5,1761.8 72.5,1761.0C71.7,1760.3 71.0,1758.1 71.0,1756.0C71.0,1753.9 70.3,1751.7 69.5,1751.0C68.5,1750.2 68.0,1748.0 68.0,1744.5C68.0,1740.6 67.5,1738.9 66.0,1737.5C64.4,1736.0 64.0,1734.4 64.0,1729.0C64.0,1724.2 63.6,1721.9 62.5,1721.0C61.4,1720.1 61.0,1717.7 61.0,1712.5C61.0,1706.5 60.7,1705.0 59.0,1703.5C57.1,1701.8 57.0,1700.9 57.6,1692.1C58.2,1683.1 58.1,1682.4 56.1,1680.6C54.1,1678.8 54.0,1677.8 54.0,1660.2C54.0,1644.4 53.8,1641.4 52.4,1639.9C50.1,1637.3 50.2,1597.5 52.5,1595.0C53.7,1593.6 54.0,1589.3 54.0,1571.3C54.0,1552.9 54.2,1549.0 55.5,1548.0C56.7,1547.0 57.0,1544.3 57.0,1536.0C57.0,1526.6 57.2,1525.1 59.0,1523.5C60.6,1522.0 61.0,1520.4 61.0,1515.0C61.0,1510.2 61.4,1507.9 62.5,1507.0C63.6,1506.1 64.0,1503.7 64.0,1498.5C64.0,1492.6 64.4,1491.0 66.0,1489.5C67.5,1488.1 68.0,1486.4 68.0,1482.5C68.0,1479.0 68.5,1476.8 69.5,1476.0C70.3,1475.3 71.0,1473.3 71.0,1471.5C71.0,1469.7 71.7,1467.7 72.5,1467.0C73.5,1466.2 74.0,1464.0 74.0,1460.5C74.0,1456.8 74.6,1454.5 76.0,1452.7C77.1,1451.3 78.0,1448.8 78.0,1447.2C78.0,1445.6 78.7,1443.7 79.5,1443.0C80.4,1442.3 81.0,1440.1 81.0,1437.6C81.0,1434.6 81.5,1433.2 83.0,1432.2C84.1,1431.5 85.0,1430.1 85.0,1429.1C85.0,1428.1 85.7,1426.7 86.5,1426.0C87.3,1425.3 88.0,1423.1 88.0,1421.0C88.0,1418.9 88.7,1416.7 89.5,1416.0C90.3,1415.3 91.0,1414.0 91.0,1413.0C91.0,1412.1 91.9,1410.5 93.0,1409.5C94.1,1408.5 95.0,1406.7 95.0,1405.5C95.0,1404.2 95.7,1402.7 96.5,1402.0C97.3,1401.3 98.0,1399.4 98.0,1397.8C98.0,1396.2 98.9,1393.7 100.0,1392.3C101.1,1390.9 102.0,1388.9 102.0,1388.0C102.0,1387.0 102.7,1385.7 103.5,1385.0C104.3,1384.3 105.0,1382.7 105.0,1381.5C105.0,1380.3 105.7,1378.7 106.5,1378.0C107.3,1377.3 108.0,1375.9 108.0,1374.8C108.0,1373.8 109.6,1371.6 111.5,1369.9C113.4,1368.2 115.0,1366.0 115.0,1365.0C115.0,1364.0 115.7,1362.7 116.5,1362.0C117.3,1361.3 118.0,1359.8 118.0,1358.6C118.0,1357.4 119.5,1355.3 121.5,1353.7C123.6,1352.0 125.0,1350.0 125.0,1348.7C125.0,1347.4 126.5,1344.9 128.5,1343.0C130.4,1341.1 132.0,1338.9 132.0,1338.0C132.0,1337.1 133.3,1335.1 134.9,1333.6C136.5,1332.1 138.0,1329.6 138.3,1328.1C138.6,1326.5 140.9,1323.7 143.9,1321.2C147.2,1318.4 149.0,1316.1 149.0,1314.6C149.0,1313.3 150.8,1310.6 153.5,1308.0C156.0,1305.6 158.0,1302.8 158.0,1301.9C158.0,1299.8 228.0,1230.0 230.1,1230.0C231.0,1230.0 234.7,1226.8 238.4,1223.0C243.1,1218.0 245.7,1216.0 247.5,1216.0C249.1,1216.0 250.7,1214.9 252.2,1213.0C253.4,1211.3 255.3,1210.0 256.5,1210.0C257.7,1210.0 260.1,1208.4 262.0,1206.5C263.9,1204.6 266.0,1203.0 266.8,1203.0C267.6,1203.0 270.0,1201.4 272.1,1199.5C274.2,1197.6 276.6,1196.3 277.3,1196.6C278.1,1196.9 280.1,1195.6 281.8,1193.6C283.5,1191.6 285.8,1190.0 286.8,1190.0C287.8,1190.0 289.5,1189.1 290.5,1188.0C291.5,1186.9 293.3,1186.0 294.6,1186.0C295.8,1186.0 297.9,1184.7 299.3,1183.0C300.7,1181.4 302.7,1180.0 303.8,1180.0C304.8,1180.0 306.5,1179.1 307.5,1178.0C308.5,1176.9 310.1,1176.0 311.0,1176.0C312.0,1176.0 313.3,1175.3 314.0,1174.5C314.7,1173.7 315.9,1173.0 316.7,1173.0C317.5,1173.0 319.3,1172.1 320.7,1171.0C322.1,1169.9 324.1,1169.0 325.0,1169.0C326.0,1169.0 327.3,1168.3 328.0,1167.5C328.7,1166.7 330.0,1166.0 331.0,1166.0C332.0,1166.0 333.3,1165.3 334.0,1164.5C334.7,1163.7 336.9,1163.0 339.0,1163.0C341.4,1163.0 343.3,1162.3 344.5,1161.0C345.5,1159.9 347.1,1159.0 348.0,1159.0C349.0,1159.0 350.3,1158.3 351.0,1157.5C351.7,1156.7 353.3,1156.0 354.5,1156.0C355.7,1156.0 357.3,1155.3 358.0,1154.5C358.7,1153.7 360.9,1153.0 363.0,1153.0C365.4,1153.0 367.3,1152.3 368.5,1151.0C369.6,1149.8 371.6,1149.0 373.5,1149.0C375.3,1149.0 377.3,1148.3 378.0,1147.5C378.7,1146.7 380.9,1146.0 383.0,1146.0C385.4,1146.0 387.3,1145.3 388.5,1144.0C389.9,1142.5 391.1,1142.1 393.4,1142.6C395.8,1143.0 397.0,1142.6 398.4,1141.1C399.6,1139.8 401.5,1139.0 403.5,1139.0C405.3,1139.0 407.3,1138.3 408.0,1137.5C408.8,1136.5 411.1,1136.0 415.0,1136.0C419.5,1136.0 421.1,1135.6 422.6,1133.9C424.3,1132.0 425.3,1131.8 430.7,1132.3C435.9,1132.7 437.2,1132.5 438.6,1130.9C439.9,1129.4 441.7,1129.0 446.8,1129.0C451.5,1129.0 453.9,1128.5 455.2,1127.3C456.7,1126.0 459.0,1125.7 468.8,1125.9C479.6,1126.1 480.7,1125.9 482.4,1124.1C484.2,1122.1 485.3,1122.0 508.5,1122.0C528.8,1122.0 533.0,1121.8 534.0,1120.5C535.8,1118.3 556.2,1118.3 558.0,1120.5C559.0,1121.8 562.9,1122.0 581.5,1122.0C602.4,1122.0 603.8,1122.1 605.5,1124.0C607.1,1125.8 608.6,1126.0 619.5,1126.0C629.2,1126.0 632.0,1126.3 633.0,1127.5C633.9,1128.6 636.4,1129.0 642.8,1129.0C649.5,1129.0 651.8,1129.4 653.3,1130.7C654.8,1132.1 656.6,1132.4 661.4,1132.2C666.6,1131.9 667.8,1132.2 669.4,1133.9C670.9,1135.5 672.5,1136.0 676.5,1136.0C680.0,1136.0 682.2,1136.5 683.0,1137.5C683.8,1138.5 686.0,1139.0 689.5,1139.0C693.0,1139.0 695.2,1139.5 696.0,1140.5C696.7,1141.3 698.9,1142.0 701.0,1142.0C703.4,1142.0 705.3,1142.7 706.5,1144.0C707.7,1145.3 709.6,1146.0 712.0,1146.0C714.1,1146.0 716.3,1146.7 717.0,1147.5C717.7,1148.3 719.7,1149.0 721.5,1149.0C723.4,1149.0 725.4,1149.8 726.5,1151.0C727.7,1152.3 729.6,1153.0 732.0,1153.0C734.1,1153.0 736.3,1153.7 737.0,1154.5C737.7,1155.3 739.3,1156.0 740.5,1156.0C741.7,1156.0 743.3,1156.7 744.0,1157.5C744.7,1158.3 746.0,1159.0 747.0,1159.0C747.9,1159.0 749.5,1159.9 750.5,1161.0C751.7,1162.3 753.6,1163.0 756.0,1163.0C758.1,1163.0 760.3,1163.7 761.0,1164.5C761.7,1165.3 763.0,1166.0 764.0,1166.0C764.9,1166.0 766.5,1166.9 767.5,1168.0C768.5,1169.1 769.7,1169.7 770.2,1169.4C770.8,1169.0 772.5,1169.7 774.1,1170.9C775.6,1172.0 777.6,1173.0 778.3,1173.0C779.1,1173.0 780.3,1173.7 781.0,1174.5C781.7,1175.3 783.0,1176.0 784.0,1176.0C784.9,1176.0 786.5,1176.9 787.5,1178.0C788.5,1179.1 790.3,1180.0 791.5,1180.0C792.7,1180.0 794.9,1181.3 796.5,1183.0C798.1,1184.7 800.1,1186.0 801.0,1186.0C801.9,1186.0 803.5,1186.9 804.5,1188.0C805.5,1189.1 807.2,1190.0 808.2,1190.0C809.2,1190.0 811.4,1191.6 813.1,1193.5C815.0,1195.6 817.1,1197.0 818.5,1197.0C819.7,1197.0 821.3,1197.7 822.0,1198.5C822.7,1199.3 824.0,1200.0 824.9,1200.0C825.8,1200.0 828.8,1202.2 831.5,1205.0C834.2,1207.7 837.2,1210.0 838.1,1210.0C839.0,1210.0 841.5,1211.6 843.6,1213.5C845.7,1215.4 848.1,1217.0 849.0,1217.0C849.8,1217.0 853.5,1219.9 857.0,1223.5C860.5,1227.1 864.1,1230.0 865.0,1230.0C867.0,1230.0 933.0,1296.0 933.0,1298.0C933.0,1298.9 935.9,1302.5 939.5,1306.0C943.5,1310.0 946.0,1313.3 946.0,1314.6C946.0,1315.9 947.5,1318.1 949.5,1319.9C951.4,1321.6 953.0,1323.8 953.0,1324.8C953.0,1325.8 955.2,1328.8 958.0,1331.5C960.8,1334.2 963.0,1337.2 963.0,1338.1C963.0,1339.0 963.9,1340.5 965.0,1341.5C966.1,1342.5 967.0,1344.3 967.0,1345.6C967.0,1346.8 968.3,1348.9 970.0,1350.3C971.6,1351.7 973.0,1353.7 973.0,1354.7C973.0,1355.7 974.9,1358.5 977.3,1360.8L981.6,1365.0L983.8,1362.7C985.0,1361.4 986.0,1359.5 986.0,1358.4C986.0,1357.3 987.6,1354.9 989.5,1353.0C991.4,1351.1 993.0,1348.9 993.0,1348.0C993.0,1347.1 994.6,1344.9 996.5,1343.0C998.4,1341.1 1000.0,1338.9 1000.0,1338.0C1000.0,1337.1 1001.4,1335.1 1003.0,1333.5C1004.6,1331.9 1006.0,1329.6 1006.0,1328.4C1006.0,1327.0 1007.9,1324.6 1011.5,1321.5C1015.1,1318.5 1017.0,1316.1 1017.0,1314.6C1017.0,1313.3 1019.0,1310.5 1022.0,1307.5C1024.8,1304.8 1027.0,1301.9 1027.0,1301.0C1027.0,1300.2 1031.5,1295.0 1037.0,1289.5C1043.4,1283.1 1046.9,1278.9 1046.8,1277.7C1046.4,1275.3 1071.7,1250.0 1074.5,1250.0C1075.7,1250.0 1080.5,1246.1 1086.5,1240.0C1092.0,1234.5 1097.2,1230.0 1098.0,1230.0C1098.9,1230.0 1102.5,1227.1 1106.0,1223.5C1109.8,1219.7 1113.3,1217.0 1114.5,1217.0C1115.7,1217.0 1118.7,1214.8 1121.5,1212.0C1124.2,1209.2 1127.1,1207.0 1128.0,1207.0C1128.9,1207.0 1131.1,1205.4 1133.0,1203.5C1134.9,1201.6 1137.1,1200.0 1138.0,1200.0C1138.9,1200.0 1141.1,1198.4 1143.0,1196.5C1144.9,1194.6 1147.4,1193.0 1148.6,1193.0C1149.8,1193.0 1151.3,1192.3 1152.0,1191.5C1152.7,1190.7 1154.0,1190.0 1155.0,1190.0C1155.9,1190.0 1157.5,1189.1 1158.6,1187.9C1159.6,1186.8 1161.2,1186.1 1162.2,1186.3C1163.3,1186.6 1165.0,1185.6 1167.0,1183.4C1168.6,1181.5 1170.8,1180.0 1171.8,1180.0C1172.8,1180.0 1174.5,1179.1 1175.5,1178.0C1176.5,1176.9 1178.1,1176.0 1179.0,1176.0C1180.0,1176.0 1181.3,1175.3 1182.0,1174.5C1182.7,1173.7 1184.0,1173.0 1185.0,1173.0C1186.0,1173.0 1187.3,1172.3 1188.0,1171.5C1188.7,1170.7 1190.2,1170.0 1191.5,1170.0C1192.7,1170.0 1194.5,1169.1 1195.5,1168.0C1196.5,1166.9 1198.1,1166.0 1199.0,1166.0C1200.0,1166.0 1201.3,1165.3 1202.0,1164.5C1202.7,1163.7 1203.9,1163.0 1204.7,1163.0C1205.5,1163.0 1207.3,1162.1 1208.7,1161.0C1210.1,1159.9 1212.7,1159.0 1214.5,1159.0C1216.3,1159.0 1218.3,1158.3 1219.0,1157.5C1219.7,1156.7 1221.3,1156.0 1222.5,1156.0C1223.7,1156.0 1225.3,1155.3 1226.0,1154.5C1226.7,1153.7 1228.7,1153.0 1230.5,1153.0C1232.4,1153.0 1234.4,1152.2 1235.5,1151.0C1236.7,1149.7 1238.6,1149.0 1241.0,1149.0C1243.1,1149.0 1245.3,1148.3 1246.0,1147.5C1246.7,1146.7 1248.8,1146.0 1250.8,1146.0C1252.7,1146.0 1255.2,1145.2 1256.2,1144.3C1257.4,1143.2 1259.4,1142.7 1261.4,1142.8C1263.6,1143.0 1265.2,1142.5 1266.4,1141.1C1267.9,1139.5 1269.5,1139.0 1273.5,1139.0C1277.0,1139.0 1279.2,1138.5 1280.0,1137.5C1280.8,1136.5 1283.0,1136.0 1286.5,1136.0C1290.4,1136.0 1292.1,1135.5 1293.5,1134.0C1295.0,1132.4 1296.6,1132.0 1302.0,1132.0C1306.8,1132.0 1309.1,1131.6 1310.0,1130.5C1310.9,1129.4 1313.4,1129.0 1319.7,1129.0C1326.5,1129.0 1328.7,1128.6 1330.6,1127.1C1332.7,1125.5 1334.3,1125.3 1344.2,1125.8C1354.8,1126.2 1355.6,1126.1 1357.4,1124.1C1359.3,1122.0 1359.5,1122.0 1414.0,1122.0C1468.5,1122.0 1468.7,1122.0 1470.6,1124.1C1472.4,1126.2 1473.1,1126.2 1485.6,1125.6C1497.9,1125.0 1498.8,1125.1 1500.5,1127.0C1502.0,1128.6 1503.6,1129.0 1509.0,1129.0C1514.3,1129.0 1516.0,1129.4 1517.4,1130.9C1518.9,1132.5 1520.1,1132.7 1525.1,1132.3C1530.2,1131.8 1531.6,1132.0 1534.0,1133.9C1536.1,1135.4 1538.4,1136.0 1541.8,1136.0C1545.0,1136.0 1547.2,1136.5 1548.0,1137.5C1548.8,1138.5 1551.0,1139.0 1554.5,1139.0C1558.0,1139.0 1560.2,1139.5 1561.0,1140.5C1561.7,1141.3 1563.7,1142.0 1565.5,1142.0C1567.3,1142.0 1569.9,1142.9 1571.3,1144.0C1572.7,1145.1 1575.2,1146.0 1576.8,1146.0C1578.4,1146.0 1580.3,1146.7 1581.0,1147.5C1581.7,1148.3 1583.9,1149.0 1586.0,1149.0C1588.4,1149.0 1590.3,1149.7 1591.5,1151.0C1592.7,1152.3 1594.6,1153.0 1597.0,1153.0C1599.1,1153.0 1601.3,1153.7 1602.0,1154.5C1602.7,1155.3 1604.0,1156.0 1605.0,1156.0C1606.0,1156.0 1607.3,1156.7 1608.0,1157.5C1608.7,1158.3 1610.0,1159.0 1611.0,1159.0C1611.9,1159.0 1613.5,1159.9 1614.5,1161.0C1615.8,1162.4 1617.6,1163.0 1620.5,1163.0C1623.1,1163.0 1625.3,1163.6 1626.0,1164.5C1626.7,1165.3 1628.0,1166.0 1629.0,1166.0C1630.0,1166.0 1631.3,1166.7 1632.0,1167.5C1632.7,1168.3 1634.0,1169.0 1635.0,1169.0C1635.9,1169.0 1637.5,1169.9 1638.5,1171.0C1639.5,1172.1 1641.1,1173.0 1642.0,1173.0C1643.0,1173.0 1644.3,1173.7 1645.0,1174.5C1645.7,1175.3 1647.2,1176.0 1648.5,1176.0C1649.7,1176.0 1651.5,1176.9 1652.5,1178.0C1653.5,1179.1 1655.1,1180.0 1656.0,1180.0C1656.9,1180.0 1659.1,1181.6 1661.0,1183.5C1662.8,1185.4 1664.7,1186.7 1665.3,1186.3C1665.8,1186.0 1667.5,1186.7 1669.1,1187.9C1670.6,1189.0 1672.6,1190.0 1673.3,1190.0C1674.1,1190.0 1675.3,1190.7 1676.0,1191.5C1676.7,1192.3 1678.0,1193.0 1678.9,1193.0C1679.9,1193.0 1682.1,1194.6 1684.0,1196.5C1685.9,1198.4 1688.3,1200.0 1689.5,1200.0C1690.7,1200.0 1693.1,1201.6 1695.0,1203.5C1696.9,1205.4 1699.1,1207.0 1700.0,1207.0C1700.9,1207.0 1703.8,1209.3 1706.5,1212.0C1709.2,1214.8 1712.2,1217.0 1713.2,1217.0C1714.1,1217.0 1717.0,1219.2 1719.6,1222.0C1722.3,1224.9 1725.1,1227.0 1726.4,1227.0C1729.4,1227.0 1797.0,1294.7 1797.0,1297.7C1797.0,1299.1 1799.4,1302.0 1804.0,1306.1C1808.7,1310.3 1811.0,1313.1 1811.0,1314.6C1811.0,1316.1 1813.0,1318.6 1816.6,1321.9C1820.2,1325.0 1822.1,1327.4 1821.7,1328.3C1821.4,1329.2 1822.6,1331.1 1824.6,1333.1C1826.5,1334.9 1828.0,1337.3 1828.0,1338.5C1828.0,1339.7 1829.3,1341.9 1831.0,1343.5C1832.6,1345.1 1834.0,1347.1 1834.0,1348.0C1834.0,1348.9 1834.9,1350.5 1836.0,1351.5C1837.1,1352.5 1838.0,1354.1 1838.0,1355.0C1838.0,1356.0 1838.7,1357.3 1839.5,1358.0C1840.3,1358.7 1841.0,1360.2 1841.0,1361.5C1841.0,1362.7 1841.9,1364.5 1843.0,1365.5C1844.1,1366.5 1845.0,1368.1 1845.0,1369.0C1845.0,1369.9 1846.3,1371.9 1848.0,1373.5C1849.7,1375.1 1851.0,1377.2 1851.0,1378.2C1851.0,1379.2 1851.9,1380.5 1853.0,1381.2C1854.2,1382.0 1855.0,1383.6 1855.0,1385.1C1855.0,1386.6 1855.7,1388.3 1856.5,1389.0C1857.3,1389.7 1858.0,1391.3 1858.0,1392.5C1858.0,1393.7 1858.7,1395.3 1859.5,1396.0C1860.3,1396.7 1861.0,1398.0 1861.0,1399.0C1861.0,1399.9 1861.9,1401.5 1863.0,1402.5C1864.2,1403.6 1865.0,1405.6 1865.0,1407.5C1865.0,1409.3 1865.7,1411.3 1866.5,1412.0C1867.3,1412.7 1868.0,1414.2 1868.0,1415.5C1868.0,1416.7 1868.9,1418.5 1870.0,1419.5C1871.2,1420.6 1872.0,1422.6 1872.0,1424.5C1872.0,1426.3 1872.7,1428.3 1873.5,1429.0C1874.3,1429.7 1875.0,1431.9 1875.0,1434.0C1875.0,1436.1 1875.7,1438.3 1876.5,1439.0C1877.3,1439.7 1878.0,1441.9 1878.0,1444.0C1878.0,1446.4 1878.7,1448.3 1880.0,1449.5C1881.3,1450.7 1882.0,1452.6 1882.0,1455.0C1882.0,1457.1 1882.7,1459.3 1883.5,1460.0C1884.3,1460.7 1885.0,1462.9 1885.0,1465.0C1885.0,1467.4 1885.7,1469.3 1887.0,1470.5C1888.2,1471.6 1889.0,1473.6 1889.0,1475.5C1889.0,1477.3 1889.7,1479.3 1890.5,1480.0C1891.5,1480.8 1892.0,1483.0 1892.0,1486.5C1892.0,1490.0 1892.5,1492.2 1893.5,1493.0C1894.6,1493.9 1895.0,1496.3 1895.0,1501.5C1895.0,1507.4 1895.4,1509.0 1897.0,1510.5C1898.5,1511.9 1899.0,1513.6 1899.0,1517.5C1899.0,1521.0 1899.5,1523.2 1900.5,1524.0C1901.6,1524.9 1902.0,1527.4 1902.0,1534.0C1902.0,1541.4 1902.3,1543.0 1904.0,1544.5C1905.8,1546.1 1905.9,1547.2 1905.3,1560.9C1904.8,1574.9 1904.8,1575.6 1906.9,1577.4C1909.0,1579.3 1909.0,1579.7 1909.0,1619.0C1909.0,1658.2 1909.0,1658.7 1906.9,1660.6C1904.8,1662.4 1904.8,1663.1 1905.4,1675.6C1906.1,1687.9 1906.0,1688.7 1904.0,1690.5C1902.3,1692.0 1902.0,1693.5 1902.0,1700.5C1902.0,1706.6 1901.6,1709.1 1900.5,1710.0C1899.4,1710.9 1899.0,1713.3 1899.0,1718.5C1899.0,1724.4 1898.6,1726.0 1897.0,1727.5C1895.5,1728.9 1895.0,1730.6 1895.0,1734.5C1895.0,1738.0 1894.5,1740.2 1893.5,1741.0C1892.5,1741.8 1892.0,1744.0 1892.0,1747.5C1892.0,1751.0 1891.5,1753.2 1890.5,1754.0C1889.5,1754.8 1889.0,1757.0 1889.0,1760.5C1889.0,1764.4 1888.5,1766.1 1887.0,1767.5C1885.7,1768.7 1885.0,1770.6 1885.0,1773.0C1885.0,1775.1 1884.3,1777.3 1883.5,1778.0C1882.7,1778.7 1882.0,1780.9 1882.0,1783.0C1882.0,1785.4 1881.3,1787.3 1880.0,1788.5C1878.7,1789.7 1878.0,1791.6 1878.0,1794.0C1878.0,1796.1 1877.3,1798.3 1876.5,1799.0C1875.7,1799.7 1875.0,1801.0 1875.0,1802.0C1875.0,1803.0 1874.3,1804.3 1873.5,1805.0C1872.7,1805.7 1872.0,1807.9 1872.0,1810.0C1872.0,1812.4 1871.3,1814.3 1870.0,1815.5C1868.9,1816.5 1868.0,1818.1 1868.0,1819.0C1868.0,1820.0 1867.3,1821.3 1866.5,1822.0C1865.7,1822.7 1865.0,1824.9 1865.0,1827.0C1865.0,1829.1 1864.3,1831.3 1863.5,1832.0C1862.7,1832.7 1862.0,1834.0 1862.0,1835.0C1862.0,1835.9 1861.1,1837.5 1860.0,1838.5C1858.9,1839.5 1858.0,1841.3 1858.0,1842.5C1858.0,1843.8 1857.3,1845.3 1856.5,1846.0C1855.7,1846.7 1855.0,1848.0 1855.0,1849.0C1855.0,1849.9 1854.1,1851.5 1853.0,1852.5C1851.9,1853.5 1851.0,1855.1 1851.0,1856.0C1851.0,1857.0 1850.3,1858.3 1849.5,1859.0C1848.7,1859.7 1848.0,1861.2 1848.0,1862.4C1848.0,1863.6 1846.4,1866.1 1844.5,1868.0C1842.6,1869.9 1841.0,1872.1 1841.0,1873.1C1841.0,1874.0 1840.3,1875.3 1839.5,1876.0C1838.7,1876.7 1838.0,1878.2 1838.0,1879.4C1838.0,1880.6 1836.5,1882.7 1834.5,1884.3C1832.4,1886.0 1831.0,1888.0 1831.0,1889.3C1831.0,1890.6 1829.5,1893.1 1827.5,1895.0C1825.6,1896.9 1824.0,1899.1 1824.0,1900.0C1824.0,1900.9 1822.7,1902.9 1821.1,1904.4C1819.5,1905.9 1818.0,1908.4 1817.7,1909.9C1817.3,1911.6 1815.3,1914.2 1812.6,1916.4C1809.7,1918.8 1808.0,1920.9 1808.0,1922.3C1808.0,1923.8 1805.1,1927.5 1799.5,1933.0C1794.9,1937.6 1791.0,1942.2 1790.8,1943.2C1790.4,1945.6 1742.0,1994.0 1740.0,1994.0C1739.2,1994.0 1735.3,1997.1 1731.5,2001.0C1727.5,2005.1 1723.7,2008.0 1722.5,2008.0C1721.4,2008.0 1718.3,2010.3 1715.6,2013.0C1712.9,2015.8 1709.9,2018.0 1709.0,2018.0C1708.0,2018.0 1705.2,2020.2 1702.6,2023.0C1700.0,2025.8 1697.1,2028.0 1696.1,2028.0C1695.1,2028.0 1693.7,2028.7 1693.0,2029.5C1692.3,2030.3 1690.8,2031.0 1689.6,2031.0C1688.4,2031.0 1685.9,2032.6 1684.0,2034.5C1682.1,2036.4 1679.9,2038.0 1678.9,2038.0C1678.0,2038.0 1676.7,2038.7 1676.0,2039.5C1675.3,2040.3 1674.0,2041.0 1673.1,2041.0C1672.1,2041.0 1669.7,2042.6 1667.6,2044.5C1665.5,2046.4 1663.0,2048.0 1662.0,2048.0C1661.0,2048.0 1659.7,2048.7 1659.0,2049.5C1658.3,2050.3 1657.0,2051.0 1656.1,2051.0C1655.1,2051.0 1652.9,2052.6 1651.0,2054.5C1648.3,2057.2 1646.8,2058.0 1644.0,2058.0C1641.6,2058.0 1639.7,2058.7 1638.5,2060.0C1637.5,2061.1 1635.9,2062.0 1635.0,2062.0C1634.0,2062.0 1632.7,2062.7 1632.0,2063.5C1631.3,2064.3 1629.7,2065.0 1628.5,2065.0C1627.3,2065.0 1625.7,2065.7 1625.0,2066.5C1624.3,2067.3 1623.0,2068.0 1622.0,2068.0C1621.1,2068.0 1619.5,2068.9 1618.5,2070.0C1617.5,2071.1 1616.3,2072.0 1615.8,2072.0C1615.2,2072.0 1613.7,2072.9 1612.3,2074.0C1610.4,2075.5 1608.8,2075.9 1606.6,2075.4C1604.2,2075.0 1603.0,2075.4 1601.6,2076.9C1600.3,2078.3 1599.0,2078.7 1596.7,2078.3C1594.3,2077.9 1593.0,2078.3 1591.6,2079.9C1590.3,2081.3 1588.5,2082.0 1586.0,2082.0C1583.9,2082.0 1581.7,2082.7 1581.0,2083.5C1580.3,2084.3 1578.4,2085.0 1576.8,2085.0C1575.2,2085.0 1572.7,2085.9 1571.3,2087.0C1569.9,2088.1 1567.3,2089.0 1565.5,2089.0C1563.7,2089.0 1561.7,2089.7 1561.0,2090.5C1560.2,2091.5 1558.0,2092.0 1554.5,2092.0C1551.0,2092.0 1548.8,2092.5 1548.0,2093.5C1547.2,2094.5 1545.0,2095.0 1541.8,2095.0C1538.3,2095.0 1536.0,2095.6 1534.3,2097.0C1532.5,2098.4 1530.2,2099.0 1527.0,2099.0C1524.0,2099.0 1521.8,2099.6 1521.0,2100.5C1520.1,2101.6 1517.6,2102.0 1511.0,2102.0C1504.4,2102.0 1501.9,2102.4 1501.0,2103.5C1500.0,2104.7 1497.2,2105.0 1487.5,2105.0C1476.6,2105.0 1475.1,2105.2 1473.5,2107.0C1471.7,2109.0 1470.4,2109.0 1414.0,2109.0C1356.5,2109.0 1356.3,2109.0 1354.4,2106.9C1352.6,2104.9 1351.8,2104.8 1340.8,2105.2C1330.3,2105.7 1328.9,2105.5 1327.4,2103.9C1326.0,2102.3 1324.2,2102.0 1317.0,2102.0C1310.4,2102.0 1307.9,2101.6 1307.0,2100.5C1306.2,2099.5 1304.0,2099.0 1300.5,2099.0C1296.6,2099.0 1294.9,2098.5 1293.5,2097.0C1292.1,2095.5 1290.4,2095.0 1286.5,2095.0C1283.0,2095.0 1280.8,2094.5 1280.0,2093.5C1279.2,2092.5 1277.0,2092.0 1273.5,2092.0C1270.0,2092.0 1267.8,2091.5 1267.0,2090.5C1266.3,2089.7 1264.1,2089.0 1262.0,2089.0C1259.6,2089.0 1257.7,2088.3 1256.5,2087.0C1255.3,2085.7 1253.4,2085.0 1251.0,2085.0C1248.9,2085.0 1246.7,2084.3 1246.0,2083.5C1245.3,2082.7 1243.2,2082.0 1241.2,2082.0C1239.3,2082.0 1236.8,2081.3 1235.8,2080.3C1234.8,2079.4 1232.7,2078.7 1231.1,2078.8C1229.4,2078.8 1227.5,2078.1 1226.4,2076.9C1225.3,2075.7 1223.4,2075.0 1221.0,2075.0C1218.9,2075.0 1216.7,2074.3 1216.0,2073.5C1215.3,2072.7 1214.0,2072.0 1213.0,2072.0C1212.1,2072.0 1210.5,2071.1 1209.5,2070.0C1208.5,2068.9 1206.7,2068.0 1205.5,2068.0C1204.2,2068.0 1202.7,2067.3 1202.0,2066.5C1201.3,2065.7 1200.0,2065.0 1199.0,2065.0C1198.0,2065.0 1196.7,2064.3 1196.0,2063.5C1195.3,2062.7 1193.1,2062.0 1191.0,2062.0C1188.6,2062.0 1186.7,2061.3 1185.5,2060.0C1184.5,2058.9 1182.9,2058.0 1182.0,2058.0C1181.0,2058.0 1179.7,2057.3 1179.0,2056.5C1178.3,2055.7 1177.1,2055.0 1176.3,2055.0C1175.5,2055.0 1172.9,2053.4 1170.4,2051.4C1167.1,2048.6 1165.4,2047.9 1163.6,2048.4C1160.7,2049.1 1158.0,2048.2 1158.0,2046.6C1158.0,2044.7 1153.6,2041.0 1151.4,2041.0C1150.3,2041.0 1148.1,2039.7 1146.5,2038.0C1144.9,2036.3 1142.9,2035.0 1142.0,2035.0C1141.1,2035.0 1139.5,2034.1 1138.5,2033.0C1137.5,2031.9 1135.7,2031.0 1134.5,2031.0C1133.3,2031.0 1131.1,2029.7 1129.5,2028.0C1127.9,2026.3 1125.9,2025.0 1125.0,2025.0C1124.2,2025.0 1121.0,2022.5 1118.0,2019.5C1115.0,2016.5 1111.9,2014.0 1111.0,2014.0C1110.1,2014.0 1107.2,2011.8 1104.5,2009.0C1101.8,2006.2 1098.7,2004.0 1097.5,2004.0C1096.2,2004.0 1091.2,1999.7 1084.0,1992.5C1077.7,1986.2 1071.8,1981.0 1071.0,1981.0C1069.0,1981.0 1047.0,1958.9 1047.0,1957.0C1047.0,1956.1 1042.5,1951.0 1037.0,1945.5C1030.6,1939.1 1027.0,1934.8 1027.0,1933.4C1027.0,1932.1 1025.0,1929.4 1022.0,1926.6C1019.2,1924.0 1017.0,1921.1 1017.0,1920.2C1017.0,1919.2 1015.4,1916.9 1013.5,1915.0C1011.6,1913.1 1010.0,1910.9 1010.0,1910.0C1010.0,1909.1 1008.4,1906.9 1006.5,1905.0C1004.6,1903.1 1003.0,1900.7 1003.0,1899.5C1003.0,1898.3 1001.4,1895.9 999.5,1894.0C997.6,1892.1 996.0,1889.9 996.0,1889.0C996.0,1888.1 994.4,1885.9 992.5,1884.0C990.6,1882.1 989.0,1879.9 989.0,1878.9C989.0,1878.0 988.3,1876.7 987.5,1876.0C986.7,1875.3 986.0,1873.9 986.0,1872.8C986.0,1871.7 984.8,1869.3 983.3,1867.4L980.7,1863.9L976.8,1867.7C974.7,1869.7 973.0,1872.1 973.0,1873.0C973.0,1873.9 971.6,1875.9 970.0,1877.5C968.4,1879.1 967.0,1881.1 967.0,1882.0C967.0,1882.9 966.1,1884.5 965.0,1885.5C963.9,1886.5 963.0,1888.3 963.0,1889.5C963.0,1890.6 961.4,1893.1 959.5,1895.0C957.6,1896.9 956.0,1899.1 956.0,1900.0C956.0,1900.9 953.8,1903.8 951.0,1906.5C948.2,1909.3 946.0,1912.3 946.0,1913.5C946.0,1914.7 943.8,1917.7 941.0,1920.5C938.2,1923.2 936.0,1926.1 936.0,1927.0C936.0,1927.8 931.5,1933.0 926.0,1938.5C920.5,1944.0 916.0,1949.2 916.0,1950.1C916.0,1952.3 877.3,1991.0 875.1,1991.0C874.2,1991.0 869.7,1994.8 865.0,1999.5C860.3,2004.2 855.9,2008.0 855.1,2008.0C854.3,2008.0 851.3,2010.2 848.4,2013.0C845.5,2015.8 842.3,2018.0 841.2,2018.0C840.2,2018.0 838.1,2019.3 836.5,2021.0C834.9,2022.7 832.9,2024.0 832.0,2024.0C831.2,2024.0 828.0,2026.5 825.0,2029.5C822.0,2032.5 818.8,2035.0 817.9,2035.0C817.0,2035.0 815.7,2035.7 815.0,2036.5C814.3,2037.3 812.8,2038.0 811.6,2038.0C810.4,2038.0 807.9,2039.6 806.0,2041.5C804.1,2043.4 801.9,2045.0 800.9,2045.0C800.0,2045.0 798.7,2045.7 798.0,2046.5C797.3,2047.3 795.7,2048.0 794.5,2048.0C793.3,2048.0 791.7,2048.7 791.0,2049.5C790.3,2050.3 789.0,2051.0 788.0,2051.0C787.1,2051.0 785.5,2051.9 784.5,2053.0C783.5,2054.1 781.9,2055.0 781.0,2055.0C780.0,2055.0 778.7,2055.7 778.0,2056.5C777.3,2057.3 775.8,2058.0 774.5,2058.0C773.3,2058.0 771.5,2058.9 770.5,2060.0C769.5,2061.1 767.9,2062.0 767.0,2062.0C766.0,2062.0 764.7,2062.7 764.0,2063.5C763.3,2064.3 762.0,2065.0 761.0,2065.0C760.0,2065.0 758.7,2065.7 758.0,2066.5C757.3,2067.3 755.8,2068.0 754.5,2068.0C753.3,2068.0 751.5,2068.9 750.5,2070.0C749.5,2071.1 748.3,2072.0 747.8,2072.0C747.2,2072.0 745.6,2072.9 744.2,2074.0C742.3,2075.5 740.8,2075.9 738.7,2075.4C736.9,2075.0 735.3,2075.3 734.2,2076.3C733.3,2077.1 730.8,2078.0 728.6,2078.3C726.5,2078.6 724.0,2079.6 723.0,2080.5C722.1,2081.3 719.7,2082.0 717.8,2082.0C715.8,2082.0 713.7,2082.7 713.0,2083.5C712.3,2084.3 710.4,2085.0 708.8,2085.0C707.2,2085.0 704.7,2085.9 703.3,2087.0C701.9,2088.1 699.3,2089.0 697.5,2089.0C695.7,2089.0 693.7,2089.7 693.0,2090.5C692.3,2091.3 690.1,2092.0 688.0,2092.0C685.9,2092.0 683.7,2092.7 683.0,2093.5C682.2,2094.4 680.0,2095.0 677.0,2095.0C673.6,2095.0 671.8,2095.5 670.5,2097.0C669.0,2098.6 667.4,2099.0 661.5,2099.0C656.3,2099.0 653.9,2099.4 653.0,2100.5C652.1,2101.6 649.6,2102.0 643.0,2102.0C636.7,2102.0 633.9,2102.4 633.1,2103.4C632.3,2104.4 628.8,2104.9 621.1,2105.2C612.5,2105.4 609.8,2105.9 608.3,2107.3C606.5,2108.9 602.0,2109.0 548.8,2109.0C492.6,2109.0 491.3,2109.0 489.5,2107.0ZM566.5,1911.0C568.1,1909.2 569.6,1909.0 580.5,1909.0C591.6,1909.0 592.9,1908.8 594.6,1906.9C596.3,1905.0 597.2,1904.9 603.1,1905.4C608.9,1906.0 609.8,1905.8 611.5,1904.0C612.9,1902.5 614.5,1902.0 618.5,1902.0C622.0,1902.0 624.2,1901.5 625.0,1900.5C625.7,1899.7 627.9,1899.0 630.0,1899.0C632.1,1899.0 634.3,1898.3 635.0,1897.5C635.7,1896.7 637.7,1896.0 639.5,1896.0C641.4,1896.0 643.4,1895.2 644.5,1894.0C645.7,1892.7 647.6,1892.0 650.0,1892.0C652.1,1892.0 654.3,1891.3 655.0,1890.5C655.7,1889.7 656.9,1889.0 657.7,1889.0C658.5,1889.0 660.3,1888.1 661.7,1887.0C663.1,1885.9 665.1,1885.0 666.0,1885.0C667.0,1885.0 668.3,1884.3 669.0,1883.5C669.7,1882.7 671.0,1882.0 672.0,1882.0C673.0,1882.0 674.3,1881.3 675.0,1880.5C675.7,1879.7 677.2,1879.0 678.5,1879.0C679.7,1879.0 681.5,1878.1 682.5,1877.0C683.5,1875.9 685.1,1875.0 686.0,1875.0C686.9,1875.0 689.1,1873.5 690.9,1871.6C692.7,1869.7 694.8,1868.4 695.4,1868.6C696.1,1868.9 697.5,1868.2 698.5,1867.0C699.5,1865.9 701.3,1865.0 702.5,1865.0C703.6,1865.0 706.1,1863.4 708.0,1861.5C709.9,1859.6 712.1,1858.0 713.0,1858.0C713.8,1858.0 717.5,1855.1 721.0,1851.5C724.5,1847.9 728.3,1845.0 729.4,1845.0C732.1,1845.0 773.0,1804.2 773.0,1801.5C773.0,1800.3 775.2,1797.2 778.0,1794.5C780.8,1791.8 783.0,1788.8 783.0,1787.9C783.0,1786.9 785.5,1783.8 788.5,1780.9C791.8,1777.7 794.0,1774.8 794.0,1773.5C794.0,1772.3 795.4,1770.1 797.0,1768.5C798.6,1766.9 800.0,1764.9 800.0,1764.0C800.0,1763.1 800.9,1761.5 802.0,1760.5C803.1,1759.5 804.0,1757.9 804.0,1757.0C804.0,1756.1 805.6,1753.9 807.5,1752.0C809.6,1749.9 810.8,1748.0 810.5,1747.0C810.2,1746.0 811.4,1744.1 813.5,1742.0C815.4,1740.1 817.0,1737.9 817.0,1737.0C817.0,1736.1 817.9,1734.5 819.0,1733.5C820.1,1732.5 821.0,1730.7 821.0,1729.5C821.0,1728.2 821.7,1726.7 822.5,1726.0C823.3,1725.3 824.0,1724.0 824.0,1723.0C824.0,1722.0 824.7,1720.7 825.5,1720.0C826.3,1719.3 827.0,1718.0 827.0,1717.0C827.0,1716.1 827.9,1714.5 829.0,1713.5C830.1,1712.5 831.0,1710.7 831.0,1709.5C831.0,1708.2 831.7,1706.7 832.5,1706.0C833.3,1705.3 834.0,1704.0 834.0,1703.0C834.0,1702.1 834.9,1700.5 836.0,1699.5C837.1,1698.5 838.0,1696.7 838.0,1695.5C838.0,1694.2 838.7,1692.7 839.5,1692.0C840.3,1691.3 841.0,1690.0 841.0,1689.0C841.0,1688.0 841.7,1686.7 842.5,1686.0C843.3,1685.3 844.0,1684.0 844.0,1683.0C844.0,1682.1 844.9,1680.5 846.0,1679.5C847.1,1678.5 848.0,1676.7 848.0,1675.5C848.0,1674.2 848.7,1672.7 849.5,1672.0C850.3,1671.3 851.0,1670.0 851.0,1669.0C851.0,1668.0 851.7,1666.7 852.5,1666.0C853.3,1665.3 854.0,1663.3 854.0,1661.5C854.0,1659.7 854.9,1657.1 856.0,1655.7C857.1,1654.3 858.0,1652.5 858.0,1651.7C858.0,1650.9 858.7,1649.7 859.5,1649.0C860.3,1648.3 861.0,1646.1 861.0,1644.0C861.0,1641.6 861.7,1639.7 863.0,1638.5C864.1,1637.5 865.0,1635.9 865.0,1635.0C865.0,1634.0 865.7,1632.7 866.5,1632.0C867.3,1631.3 868.0,1629.1 868.0,1627.0C868.0,1624.9 868.7,1622.7 869.5,1622.0C871.6,1620.3 871.6,1607.7 869.5,1606.0C868.7,1605.3 868.0,1603.7 868.0,1602.5C868.0,1601.3 867.3,1599.7 866.5,1599.0C865.7,1598.3 865.0,1596.4 865.0,1594.8C865.0,1593.2 864.1,1590.7 863.0,1589.3C861.9,1587.9 861.0,1585.9 861.0,1585.0C861.0,1584.0 860.3,1582.7 859.5,1582.0C858.7,1581.3 858.0,1580.0 858.0,1579.0C858.0,1578.1 857.1,1576.5 856.0,1575.5C854.9,1574.5 854.0,1572.9 854.0,1572.0C854.0,1571.0 853.3,1569.7 852.5,1569.0C851.7,1568.3 851.0,1566.1 851.0,1564.0C851.0,1561.9 850.3,1559.7 849.5,1559.0C848.7,1558.3 848.0,1556.8 848.0,1555.5C848.0,1554.3 847.1,1552.5 846.0,1551.5C844.9,1550.5 844.0,1548.9 844.0,1548.0C844.0,1547.0 843.3,1545.7 842.5,1545.0C841.7,1544.3 841.0,1543.0 841.0,1542.0C841.0,1541.0 840.3,1539.7 839.5,1539.0C838.7,1538.3 838.0,1536.8 838.0,1535.5C838.0,1534.3 837.1,1532.5 836.0,1531.5C834.9,1530.5 834.0,1528.9 834.0,1528.0C834.0,1527.1 832.4,1524.9 830.5,1523.0C828.6,1521.1 827.0,1518.6 827.0,1517.4C827.0,1516.2 826.3,1514.7 825.5,1514.0C824.7,1513.3 824.0,1512.0 824.0,1511.0C824.0,1510.0 823.3,1508.7 822.5,1508.0C821.7,1507.3 821.0,1506.0 821.0,1505.1C821.0,1504.1 819.4,1501.9 817.5,1500.0C815.6,1498.1 814.0,1495.6 814.0,1494.4C814.0,1493.2 813.3,1491.7 812.5,1491.0C811.7,1490.3 811.0,1489.0 811.0,1488.0C811.0,1487.1 810.1,1485.5 809.0,1484.5C807.9,1483.5 807.0,1482.0 807.0,1481.2C807.0,1480.4 805.6,1478.1 804.0,1476.0C802.4,1473.9 801.0,1471.6 801.0,1470.8C801.0,1470.0 799.4,1467.9 797.5,1466.0C795.6,1464.1 794.0,1461.8 794.0,1460.9C794.0,1459.9 791.8,1456.9 789.0,1454.2C786.2,1451.5 784.0,1448.4 784.0,1447.2C784.0,1445.9 780.7,1442.1 775.0,1436.8C769.7,1431.8 766.0,1427.6 766.0,1426.4C766.0,1423.7 735.2,1393.0 732.4,1393.0C731.1,1393.0 728.2,1390.6 724.6,1386.5C720.8,1382.1 718.1,1380.0 716.6,1380.0C715.4,1380.0 712.9,1378.4 711.0,1376.5C709.1,1374.6 706.7,1373.0 705.6,1373.0C704.4,1373.0 702.3,1371.5 700.7,1369.5C699.2,1367.6 697.0,1366.0 695.9,1366.0C694.8,1366.0 692.6,1364.4 690.9,1362.5C689.0,1360.4 686.9,1359.0 685.5,1359.0C684.3,1359.0 682.7,1358.3 682.0,1357.5C681.3,1356.7 680.0,1356.0 679.0,1356.0C678.1,1356.0 676.5,1355.1 675.5,1354.0C674.5,1352.9 672.7,1352.0 671.5,1352.0C670.2,1352.0 668.7,1351.3 668.0,1350.5C667.3,1349.7 666.0,1349.0 665.0,1349.0C664.0,1349.0 662.7,1348.3 662.0,1347.5C661.3,1346.7 660.0,1346.0 659.0,1346.0C658.1,1346.0 656.5,1345.1 655.5,1344.0C654.3,1342.7 652.4,1342.0 650.0,1342.0C647.9,1342.0 645.7,1341.3 645.0,1340.5C644.3,1339.7 642.1,1339.0 640.0,1339.0C637.9,1339.0 635.7,1338.3 635.0,1337.5C634.3,1336.7 632.1,1336.0 630.0,1336.0C627.6,1336.0 625.7,1335.3 624.5,1334.0C623.1,1332.5 621.4,1332.0 617.5,1332.0C614.0,1332.0 611.8,1331.5 611.0,1330.5C610.2,1329.5 608.0,1329.0 604.5,1329.0C600.5,1329.0 598.9,1328.5 597.4,1326.9C595.7,1325.0 594.9,1324.9 585.5,1325.5C576.1,1326.2 575.4,1326.1 573.6,1324.1C571.8,1322.1 570.8,1322.0 545.5,1322.0C520.1,1322.0 519.3,1322.1 517.4,1324.1C515.7,1326.1 514.8,1326.2 507.4,1325.7C500.1,1325.2 499.0,1325.3 497.4,1327.1C496.1,1328.5 494.4,1329.0 490.5,1329.0C487.0,1329.0 484.8,1329.5 484.0,1330.5C483.2,1331.5 481.0,1332.0 477.5,1332.0C473.6,1332.0 471.9,1332.5 470.5,1334.0C469.3,1335.3 467.4,1336.0 465.0,1336.0C462.9,1336.0 460.7,1336.7 460.0,1337.5C459.3,1338.3 458.1,1339.0 457.2,1339.0C456.4,1339.0 454.8,1339.8 453.8,1340.7C452.7,1341.7 450.6,1342.3 448.6,1342.2C446.4,1342.0 444.8,1342.6 443.5,1344.0C442.5,1345.1 440.7,1346.0 439.5,1346.0C438.2,1346.0 436.7,1346.7 436.0,1347.5C435.3,1348.3 434.0,1349.0 433.0,1349.0C432.1,1349.0 430.5,1349.9 429.5,1351.0C428.5,1352.1 426.7,1353.0 425.5,1353.0C424.2,1353.0 422.7,1353.7 422.0,1354.5C421.3,1355.3 420.0,1356.0 419.0,1356.0C418.0,1356.0 416.7,1356.7 416.0,1357.5C415.3,1358.3 414.0,1359.0 413.1,1359.0C412.1,1359.0 409.9,1360.6 408.0,1362.5C406.1,1364.4 403.9,1366.0 403.0,1366.0C402.1,1366.0 399.9,1367.6 398.0,1369.5C396.1,1371.4 393.6,1373.0 392.4,1373.0C391.0,1373.0 387.9,1375.5 383.6,1380.0C380.0,1383.8 376.2,1387.0 375.3,1387.0C373.1,1387.0 332.0,1427.9 332.0,1430.0C332.0,1430.9 329.8,1433.8 327.0,1436.5C324.2,1439.2 322.0,1442.2 322.0,1443.2C322.0,1444.2 320.4,1446.4 318.5,1448.1C316.6,1449.9 315.0,1452.3 315.0,1453.5C315.0,1454.6 313.4,1457.1 311.5,1459.0C309.6,1460.9 308.0,1463.1 308.0,1464.1C308.0,1465.0 307.3,1466.3 306.5,1467.0C305.7,1467.7 305.0,1469.2 305.0,1470.5C305.0,1471.7 304.1,1473.5 303.0,1474.5C301.9,1475.5 301.0,1477.1 301.0,1478.0C301.0,1479.0 300.3,1480.3 299.5,1481.0C298.7,1481.7 298.0,1483.0 298.0,1484.0C298.0,1485.0 297.3,1486.3 296.5,1487.0C295.7,1487.7 295.0,1489.2 295.0,1490.5C295.0,1491.7 294.1,1493.5 293.0,1494.5C291.9,1495.5 291.0,1497.1 291.0,1498.0C291.0,1499.0 290.3,1500.3 289.5,1501.0C288.7,1501.7 288.0,1503.9 288.0,1506.0C288.0,1508.4 287.3,1510.3 286.0,1511.5C284.7,1512.7 284.0,1514.6 284.0,1517.0C284.0,1519.1 283.3,1521.3 282.5,1522.0C281.7,1522.7 281.0,1524.7 281.0,1526.5C281.0,1528.3 280.3,1530.3 279.5,1531.0C278.5,1531.8 278.0,1534.0 278.0,1537.5C278.0,1541.4 277.5,1543.1 276.0,1544.5C274.4,1546.0 274.0,1547.6 274.0,1553.5C274.0,1558.7 273.6,1561.1 272.5,1562.0C271.3,1563.0 271.0,1565.6 271.0,1573.3C271.0,1581.4 270.7,1583.7 269.3,1585.3C267.7,1587.0 267.5,1590.2 267.3,1615.5C267.2,1642.3 267.3,1643.9 269.1,1645.6C270.7,1647.1 271.0,1648.7 271.0,1657.5C271.0,1665.4 271.3,1668.0 272.5,1669.0C273.6,1669.9 274.0,1672.2 274.0,1676.7C274.0,1681.7 274.5,1683.8 276.0,1685.7C277.4,1687.5 278.0,1689.8 278.0,1693.5C278.0,1697.0 278.5,1699.2 279.5,1700.0C280.3,1700.7 281.0,1702.7 281.0,1704.5C281.0,1706.3 281.7,1708.3 282.5,1709.0C283.3,1709.7 284.0,1711.9 284.0,1714.0C284.0,1716.4 284.7,1718.3 286.0,1719.5C287.3,1720.7 288.0,1722.6 288.0,1725.0C288.0,1727.1 288.7,1729.3 289.5,1730.0C290.3,1730.7 291.0,1732.0 291.0,1733.0C291.0,1733.9 291.9,1735.5 293.0,1736.5C294.1,1737.5 295.0,1739.3 295.0,1740.5C295.0,1741.8 295.7,1743.3 296.5,1744.0C297.3,1744.7 298.0,1746.6 298.0,1748.3C298.0,1750.3 299.1,1752.5 301.5,1755.1C303.4,1757.3 305.0,1759.8 305.0,1760.9C305.0,1761.9 305.7,1763.3 306.5,1764.0C307.3,1764.7 308.0,1766.0 308.0,1767.0C308.0,1768.0 308.7,1769.3 309.5,1770.0C310.3,1770.7 311.0,1772.3 311.0,1773.5C311.0,1774.9 312.4,1777.0 314.5,1778.9C316.4,1780.6 318.0,1782.8 318.0,1783.8C318.0,1784.8 319.6,1787.1 321.5,1789.0C323.4,1790.9 325.0,1793.1 325.0,1794.0C325.0,1794.9 327.2,1797.8 330.0,1800.5C332.8,1803.2 335.0,1806.3 335.0,1807.5C335.0,1810.3 372.7,1848.0 375.6,1848.0C377.0,1848.0 379.3,1849.8 382.0,1853.0C384.7,1856.2 387.0,1858.0 388.4,1858.0C389.6,1858.0 392.1,1859.6 394.0,1861.5C395.9,1863.4 398.2,1865.0 399.2,1865.0C400.2,1865.0 402.4,1866.6 404.1,1868.5C406.0,1870.6 408.1,1872.0 409.5,1872.0C410.7,1872.0 412.3,1872.7 413.0,1873.5C413.7,1874.3 415.0,1875.0 416.0,1875.0C416.9,1875.0 418.5,1875.9 419.5,1877.0C420.5,1878.1 422.3,1879.0 423.5,1879.0C424.8,1879.0 426.3,1879.7 427.0,1880.5C427.7,1881.3 429.0,1882.0 430.0,1882.0C431.0,1882.0 432.3,1882.7 433.0,1883.5C433.7,1884.3 435.0,1885.0 436.0,1885.0C436.9,1885.0 438.5,1885.9 439.5,1887.0C440.5,1888.1 442.3,1889.0 443.5,1889.0C444.8,1889.0 446.3,1889.7 447.0,1890.5C447.7,1891.3 449.9,1892.0 451.9,1892.0C454.5,1892.0 455.9,1892.6 456.8,1894.0C457.8,1895.7 458.7,1896.0 461.3,1895.5C463.8,1895.0 465.0,1895.3 466.4,1896.9C467.7,1898.3 469.5,1899.0 472.0,1899.0C474.1,1899.0 476.3,1899.7 477.0,1900.5C477.8,1901.5 480.0,1902.0 483.5,1902.0C487.5,1902.0 489.1,1902.5 490.6,1904.1C492.3,1905.9 493.2,1906.1 498.5,1905.5C503.7,1905.0 505.0,1905.2 507.2,1906.9C509.5,1908.8 511.2,1909.0 522.8,1909.0C534.4,1909.0 535.9,1909.2 537.5,1911.0C539.1,1912.8 540.6,1913.0 552.0,1913.0C563.4,1913.0 564.9,1912.8 566.5,1911.0ZM1421.5,1911.0C1423.1,1909.2 1424.6,1909.0 1437.0,1909.0C1449.7,1909.0 1450.8,1908.8 1452.6,1906.9C1454.3,1905.0 1455.2,1904.9 1460.6,1905.4C1465.9,1905.9 1466.9,1905.8 1468.5,1904.0C1469.9,1902.4 1471.6,1902.0 1476.0,1902.0C1479.9,1902.0 1482.2,1901.5 1483.0,1900.5C1483.7,1899.7 1485.7,1899.0 1487.5,1899.0C1489.4,1899.0 1491.4,1898.2 1492.5,1897.0C1493.7,1895.7 1495.6,1895.0 1498.0,1895.0C1500.1,1895.0 1502.3,1894.3 1503.0,1893.5C1503.7,1892.7 1505.9,1892.0 1508.0,1892.0C1510.1,1892.0 1512.3,1891.3 1513.0,1890.5C1513.7,1889.7 1515.0,1889.0 1516.0,1889.0C1516.9,1889.0 1518.5,1888.1 1519.5,1887.0C1520.5,1885.9 1522.3,1885.0 1523.5,1885.0C1524.8,1885.0 1526.3,1884.3 1527.0,1883.5C1527.7,1882.7 1529.0,1882.0 1530.0,1882.0C1531.0,1882.0 1532.3,1881.3 1533.0,1880.5C1533.7,1879.7 1535.0,1879.0 1536.0,1879.0C1536.9,1879.0 1538.5,1878.1 1539.5,1877.0C1540.5,1875.9 1542.3,1875.0 1543.5,1875.0C1544.8,1875.0 1546.3,1874.3 1547.0,1873.5C1547.7,1872.7 1549.0,1872.0 1549.9,1872.0C1550.9,1872.0 1553.1,1870.4 1555.0,1868.5C1556.9,1866.5 1559.4,1865.0 1560.7,1865.0C1562.0,1865.0 1564.0,1863.6 1565.7,1861.5C1567.3,1859.5 1569.4,1858.0 1570.6,1858.0C1571.7,1858.0 1573.9,1856.7 1575.5,1855.0C1577.1,1853.3 1579.4,1852.0 1580.6,1852.0C1582.1,1852.0 1585.6,1848.8 1592.1,1841.6C1599.2,1833.7 1602.1,1831.1 1604.0,1831.1C1607.1,1831.0 1613.5,1824.7 1614.4,1820.8C1614.8,1819.2 1618.2,1815.2 1623.0,1810.8C1628.0,1806.3 1631.0,1802.7 1631.0,1801.5C1631.0,1800.3 1633.2,1797.2 1636.0,1794.5C1638.8,1791.8 1641.0,1788.9 1641.0,1788.0C1641.0,1787.1 1642.6,1784.9 1644.5,1783.0C1646.4,1781.1 1648.0,1778.6 1648.0,1777.5C1648.0,1776.3 1648.9,1774.5 1650.0,1773.5C1651.2,1772.5 1651.9,1771.1 1651.6,1770.4C1651.4,1769.8 1652.7,1767.7 1654.6,1765.9C1656.5,1764.1 1658.0,1761.9 1658.0,1761.0C1658.0,1760.1 1658.9,1758.5 1660.0,1757.5C1661.1,1756.5 1662.0,1754.7 1662.0,1753.5C1662.0,1752.2 1662.7,1750.7 1663.5,1750.0C1664.3,1749.3 1665.0,1748.0 1665.0,1747.0C1665.0,1746.0 1665.7,1744.7 1666.5,1744.0C1667.3,1743.3 1668.0,1741.1 1668.0,1739.0C1668.0,1736.6 1668.7,1734.7 1670.0,1733.5C1671.1,1732.5 1672.0,1730.7 1672.0,1729.5C1672.0,1728.2 1672.7,1726.7 1673.5,1726.0C1674.3,1725.3 1675.0,1723.3 1675.0,1721.5C1675.0,1719.6 1675.8,1717.6 1677.0,1716.5C1678.3,1715.3 1679.0,1713.4 1679.0,1711.0C1679.0,1708.9 1679.7,1706.7 1680.5,1706.0C1681.3,1705.3 1682.0,1703.1 1682.0,1701.0C1682.0,1698.9 1682.7,1696.7 1683.5,1696.0C1684.6,1695.1 1685.0,1692.8 1685.0,1688.0C1685.0,1682.6 1685.4,1681.0 1687.0,1679.5C1688.7,1678.0 1689.0,1676.4 1689.0,1669.0C1689.0,1662.4 1689.4,1659.9 1690.5,1659.0C1692.9,1657.0 1692.7,1578.5 1690.3,1575.8C1688.9,1574.3 1688.7,1572.3 1688.9,1565.7C1689.1,1558.4 1688.9,1557.2 1687.1,1555.6C1685.3,1554.0 1685.0,1552.5 1685.0,1546.5C1685.0,1541.3 1684.6,1538.9 1683.5,1538.0C1682.7,1537.3 1682.0,1535.4 1682.0,1533.8C1682.0,1532.2 1681.1,1529.6 1680.0,1528.2C1678.6,1526.5 1678.1,1524.8 1678.5,1523.0C1678.9,1521.1 1678.5,1519.9 1677.0,1518.5C1675.7,1517.3 1675.0,1515.4 1675.0,1513.0C1675.0,1510.9 1674.3,1508.7 1673.5,1508.0C1672.7,1507.3 1672.0,1506.0 1672.0,1505.0C1672.0,1504.1 1671.1,1502.5 1670.0,1501.5C1668.7,1500.3 1668.0,1498.4 1668.0,1496.0C1668.0,1493.9 1667.3,1491.7 1666.5,1491.0C1665.7,1490.3 1665.0,1488.7 1665.0,1487.5C1665.0,1486.3 1664.3,1484.7 1663.5,1484.0C1662.7,1483.3 1662.0,1482.0 1662.0,1481.0C1662.0,1480.1 1661.1,1478.5 1660.0,1477.5C1658.9,1476.5 1658.0,1475.0 1658.0,1474.2C1658.0,1473.4 1656.4,1471.0 1654.4,1468.8C1652.5,1466.6 1651.1,1464.2 1651.4,1463.5C1651.6,1462.8 1651.0,1461.4 1649.9,1460.4C1648.9,1459.5 1648.0,1457.9 1648.0,1457.0C1648.0,1456.1 1646.4,1453.9 1644.5,1452.0C1642.6,1450.1 1641.0,1447.6 1641.0,1446.4C1641.0,1445.0 1639.2,1442.7 1636.0,1440.0C1632.8,1437.4 1631.0,1435.0 1631.0,1433.7C1631.0,1430.7 1586.4,1386.0 1583.4,1386.0C1582.1,1386.0 1579.7,1384.1 1577.1,1381.0C1574.3,1377.7 1572.1,1376.0 1570.6,1376.0C1569.4,1376.0 1566.9,1374.5 1565.0,1372.5C1563.1,1370.6 1560.9,1369.0 1560.0,1369.0C1559.1,1369.0 1557.1,1367.7 1555.5,1366.0C1553.9,1364.3 1551.9,1363.0 1550.9,1363.0C1550.0,1363.0 1548.1,1362.1 1546.7,1361.0C1545.3,1359.9 1543.5,1359.0 1542.7,1359.0C1541.9,1359.0 1540.7,1358.3 1540.0,1357.5C1539.3,1356.7 1538.0,1356.0 1537.0,1356.0C1536.0,1356.0 1534.7,1355.3 1534.0,1354.5C1533.3,1353.7 1531.8,1353.0 1530.5,1353.0C1529.3,1353.0 1527.5,1352.1 1526.5,1351.0C1525.5,1349.9 1523.9,1349.0 1523.0,1349.0C1522.0,1349.0 1520.7,1348.3 1520.0,1347.5C1519.3,1346.7 1518.0,1346.0 1517.0,1346.0C1516.1,1346.0 1514.1,1345.1 1512.7,1344.0C1511.3,1342.9 1508.8,1342.0 1507.2,1342.0C1505.6,1342.0 1503.7,1341.3 1503.0,1340.5C1502.2,1339.5 1500.3,1339.0 1497.9,1339.2C1495.5,1339.3 1493.4,1338.8 1492.2,1337.7C1491.2,1336.8 1489.0,1336.0 1487.3,1336.0C1485.6,1336.0 1483.5,1335.2 1482.5,1334.0C1481.3,1332.7 1479.4,1332.0 1477.0,1332.0C1474.9,1332.0 1472.7,1331.3 1472.0,1330.5C1471.1,1329.4 1468.8,1329.0 1464.0,1329.0C1458.5,1329.0 1457.0,1328.6 1455.5,1327.0C1453.8,1325.1 1452.9,1325.0 1445.6,1325.6C1438.2,1326.2 1437.3,1326.1 1435.6,1324.1C1433.7,1322.1 1432.9,1322.0 1404.3,1322.0C1375.8,1322.0 1374.8,1322.1 1372.0,1324.1C1369.4,1326.1 1368.3,1326.2 1361.2,1325.6C1354.1,1325.0 1353.1,1325.2 1351.5,1327.0C1350.1,1328.5 1348.4,1329.0 1344.5,1329.0C1341.0,1329.0 1338.8,1329.5 1338.0,1330.5C1337.2,1331.5 1335.0,1332.0 1331.5,1332.0C1327.6,1332.0 1325.9,1332.5 1324.5,1334.0C1323.3,1335.3 1321.4,1336.0 1319.0,1336.0C1316.9,1336.0 1314.7,1336.7 1314.0,1337.5C1313.3,1338.3 1312.0,1339.0 1311.0,1339.0C1310.0,1339.0 1308.7,1339.7 1308.0,1340.5C1307.3,1341.3 1305.8,1342.0 1304.5,1342.0C1303.3,1342.0 1301.5,1342.9 1300.5,1344.0C1299.4,1345.2 1297.4,1346.0 1295.5,1346.0C1293.7,1346.0 1291.7,1346.7 1291.0,1347.5C1290.3,1348.3 1288.8,1349.0 1287.6,1349.0C1286.4,1349.0 1283.9,1350.6 1282.0,1352.5C1280.1,1354.4 1277.9,1356.0 1276.9,1356.0C1276.0,1356.0 1274.7,1356.7 1274.0,1357.5C1273.3,1358.3 1272.1,1359.0 1271.3,1359.0C1270.5,1359.0 1268.7,1359.9 1267.3,1361.0C1265.9,1362.1 1264.0,1363.0 1263.1,1363.0C1262.1,1363.0 1260.1,1364.3 1258.5,1366.0C1256.9,1367.7 1254.9,1369.0 1254.0,1369.0C1253.2,1369.0 1250.0,1371.5 1247.0,1374.5C1244.0,1377.5 1240.8,1380.0 1240.0,1380.0C1239.1,1380.0 1235.3,1383.2 1231.5,1387.0C1227.0,1391.8 1224.2,1393.9 1223.2,1393.5C1221.0,1392.7 1193.0,1420.6 1193.0,1423.7C1193.0,1425.1 1190.6,1427.9 1186.0,1432.1C1181.4,1436.2 1179.0,1439.0 1179.0,1440.5C1179.0,1441.7 1177.7,1443.9 1176.0,1445.5C1174.3,1447.1 1173.0,1449.1 1173.0,1450.0C1173.0,1450.9 1171.4,1453.1 1169.5,1455.0C1167.6,1456.9 1166.0,1459.0 1166.0,1459.8C1166.0,1460.5 1164.4,1463.1 1162.5,1465.4C1160.6,1467.8 1159.0,1470.4 1159.0,1471.2C1159.0,1472.0 1157.4,1474.1 1155.5,1476.0C1153.6,1477.9 1152.0,1480.1 1152.0,1481.1C1152.0,1482.0 1151.3,1483.3 1150.5,1484.0C1149.7,1484.7 1149.0,1486.2 1149.0,1487.4C1149.0,1488.6 1147.4,1491.1 1145.5,1493.0C1143.6,1494.9 1142.0,1497.1 1142.0,1498.1C1142.0,1499.0 1141.3,1500.3 1140.5,1501.0C1139.7,1501.7 1139.0,1503.2 1139.0,1504.5C1139.0,1505.7 1138.1,1507.5 1137.0,1508.5C1135.9,1509.5 1135.0,1511.1 1135.0,1512.0C1135.0,1513.0 1134.3,1514.3 1133.5,1515.0C1132.7,1515.7 1132.0,1517.0 1132.0,1518.0C1132.0,1519.0 1131.3,1520.3 1130.5,1521.0C1129.7,1521.7 1129.0,1523.0 1129.0,1524.0C1129.0,1524.9 1128.1,1526.9 1127.0,1528.3C1125.9,1529.7 1125.0,1531.5 1125.0,1532.3C1125.0,1533.1 1124.3,1534.3 1123.5,1535.0C1122.7,1535.7 1122.0,1537.0 1122.0,1538.0C1122.0,1539.0 1121.3,1540.3 1120.5,1541.0C1119.7,1541.7 1119.0,1543.0 1119.0,1544.0C1119.0,1544.9 1118.1,1546.9 1117.0,1548.3C1115.9,1549.7 1115.0,1551.5 1115.0,1552.3C1115.0,1553.1 1114.3,1554.3 1113.5,1555.0C1112.7,1555.7 1112.0,1557.2 1112.0,1558.5C1112.0,1559.7 1111.1,1561.5 1110.0,1562.5C1108.8,1563.6 1108.0,1565.6 1108.0,1567.5C1108.0,1569.3 1107.3,1571.3 1106.5,1572.0C1105.7,1572.7 1105.0,1574.3 1105.0,1575.5C1105.0,1576.7 1104.3,1578.3 1103.5,1579.0C1102.7,1579.7 1102.0,1581.0 1102.0,1582.0C1102.0,1582.9 1101.1,1584.5 1100.0,1585.5C1098.7,1586.7 1098.0,1588.6 1098.0,1591.0C1098.0,1593.1 1097.3,1595.3 1096.5,1596.0C1095.7,1596.7 1095.0,1598.9 1095.0,1601.0C1095.0,1603.1 1094.3,1605.3 1093.5,1606.0C1092.7,1606.7 1092.0,1608.7 1092.0,1610.5C1092.0,1612.3 1091.1,1614.9 1089.9,1616.4L1087.9,1619.0L1089.9,1621.6C1091.1,1623.1 1092.0,1625.7 1092.0,1627.5C1092.0,1629.3 1092.7,1631.3 1093.5,1632.0C1094.3,1632.7 1095.0,1634.9 1095.0,1637.0C1095.0,1639.1 1095.7,1641.3 1096.5,1642.0C1097.3,1642.7 1098.0,1643.9 1098.0,1644.7C1098.0,1645.5 1098.9,1647.3 1100.0,1648.7C1101.1,1650.1 1102.0,1651.8 1102.0,1652.5C1102.0,1653.2 1102.7,1654.3 1103.5,1655.0C1104.3,1655.7 1105.0,1657.2 1105.0,1658.5C1105.0,1659.7 1105.9,1661.5 1107.0,1662.5C1108.3,1663.7 1109.0,1665.6 1109.0,1668.0C1109.0,1670.1 1109.7,1672.3 1110.5,1673.0C1111.3,1673.7 1112.0,1675.0 1112.0,1676.0C1112.0,1677.0 1112.7,1678.3 1113.5,1679.0C1114.3,1679.7 1115.0,1681.2 1115.0,1682.5C1115.0,1683.7 1115.9,1685.5 1117.0,1686.5C1118.1,1687.5 1119.0,1689.1 1119.0,1690.0C1119.0,1691.0 1119.7,1692.3 1120.5,1693.0C1121.3,1693.7 1122.0,1695.0 1122.0,1696.0C1122.0,1697.0 1122.7,1698.3 1123.5,1699.0C1124.3,1699.7 1125.0,1701.2 1125.0,1702.5C1125.0,1703.7 1125.9,1705.5 1127.0,1706.5C1128.1,1707.5 1129.0,1709.1 1129.0,1710.0C1129.0,1711.0 1129.7,1712.3 1130.5,1713.0C1131.3,1713.7 1132.0,1715.0 1132.0,1716.0C1132.0,1717.0 1132.7,1718.3 1133.5,1719.0C1134.3,1719.7 1135.0,1721.2 1135.0,1722.5C1135.0,1723.7 1135.9,1725.5 1137.0,1726.5C1138.1,1727.5 1139.0,1729.1 1139.0,1730.0C1139.0,1730.9 1140.6,1733.1 1142.5,1735.0C1144.4,1736.9 1146.0,1739.4 1146.0,1740.6C1146.0,1741.8 1146.7,1743.3 1147.5,1744.0C1148.3,1744.7 1149.0,1746.0 1149.0,1746.9C1149.0,1747.9 1150.6,1750.1 1152.5,1752.0C1154.4,1753.9 1156.0,1756.0 1156.0,1756.8C1156.0,1757.6 1157.3,1759.9 1159.0,1762.0C1160.7,1764.1 1162.0,1766.4 1162.0,1767.2C1162.0,1768.0 1162.9,1769.5 1164.0,1770.5C1165.1,1771.5 1166.0,1773.0 1166.0,1773.9C1166.0,1774.8 1168.2,1777.8 1171.0,1780.5C1173.9,1783.4 1176.0,1786.3 1176.0,1787.6C1176.0,1788.9 1178.5,1792.1 1183.0,1796.2C1186.9,1799.8 1190.0,1803.6 1190.0,1804.6C1190.0,1807.0 1227.8,1845.0 1230.2,1845.0C1231.1,1845.0 1234.0,1847.2 1236.6,1850.0C1239.4,1853.0 1242.1,1855.0 1243.4,1855.0C1244.7,1855.0 1247.6,1857.1 1250.5,1860.0C1253.2,1862.8 1256.2,1865.0 1257.1,1865.0C1258.0,1865.0 1259.5,1865.9 1260.5,1867.0C1261.5,1868.2 1263.0,1868.8 1263.7,1868.6C1264.4,1868.3 1266.8,1869.6 1268.9,1871.5C1271.0,1873.4 1273.4,1875.0 1274.2,1875.0C1275.0,1875.0 1276.5,1875.9 1277.5,1877.0C1278.5,1878.1 1280.1,1879.0 1281.0,1879.0C1282.0,1879.0 1283.3,1879.7 1284.0,1880.5C1284.7,1881.3 1286.3,1882.0 1287.5,1882.0C1288.7,1882.0 1290.3,1882.7 1291.0,1883.5C1291.7,1884.3 1293.0,1885.0 1294.0,1885.0C1294.9,1885.0 1296.5,1885.9 1297.5,1887.0C1298.5,1888.1 1300.3,1889.0 1301.5,1889.0C1302.8,1889.0 1304.3,1889.7 1305.0,1890.5C1305.7,1891.3 1307.7,1892.0 1309.5,1892.0C1311.5,1892.0 1313.4,1892.8 1314.6,1894.1C1316.0,1895.7 1317.3,1896.1 1319.7,1895.7C1322.0,1895.3 1323.3,1895.7 1324.6,1897.1C1325.7,1898.3 1327.6,1899.0 1330.0,1899.0C1332.1,1899.0 1334.3,1899.7 1335.0,1900.5C1335.8,1901.5 1338.0,1902.0 1341.5,1902.0C1345.5,1902.0 1347.1,1902.5 1348.6,1904.1C1350.2,1905.9 1351.2,1906.0 1356.5,1905.5C1361.7,1904.9 1362.9,1905.1 1365.2,1906.9C1367.6,1908.8 1369.1,1909.0 1381.3,1909.0C1393.4,1909.0 1394.9,1909.2 1396.5,1911.0C1398.1,1912.8 1399.6,1913.0 1409.0,1913.0C1418.4,1913.0 1419.9,1912.8 1421.5,1911.0Z"/></svg>